<svg width="154" height="35" viewBox="0 0 154 35" fill="none" xmlns="http://www.w3.org/2000/svg">
<path d="M23.36 29H15.88L9.84 19.92C9.41333 19.2267 8.93333 18.7333 8.4 18.44C7.89333 18.12 7.24 17.96 6.44 17.96H0.72V13.12H9.12C11.6267 13.12 13.1733 12.2133 13.76 10.4H0.72V6.72H13.68C13.0667 5.04 11.5467 4.2 9.12 4.2H0.72V0.52H23.32V4.2H18.56C19.0933 4.94667 19.48 5.78667 19.72 6.72H23.32V10.4H19.88C19.64 12.2133 18.9467 13.72 17.8 14.92C16.6533 16.12 15.16 16.9333 13.32 17.36C14.2 17.5467 14.9733 17.88 15.64 18.36C16.3333 18.84 16.96 19.5067 17.52 20.36L23.36 29Z" fill="url(#paint0_linear)" fill-opacity="0.5"/>
<path d="M46.6644 24V29H28.1044V24H34.2644V7.48L28.5044 10.88V5.4L36.8644 0.52H40.5044V24H46.6644ZM62.0488 10.48C63.7021 10.48 65.1821 10.88 66.4888 11.68C67.8221 12.4533 68.8488 13.5467 69.5688 14.96C70.3154 16.3467 70.6888 17.9333 70.6888 19.72C70.6888 21.56 70.2621 23.2133 69.4088 24.68C68.5821 26.1467 67.4221 27.2933 65.9288 28.12C64.4621 28.9467 62.7954 29.36 60.9288 29.36C57.2221 29.36 54.3688 28.1333 52.3688 25.68C50.3688 23.2267 49.3688 19.7333 49.3688 15.2C49.3688 12.08 49.8488 9.4 50.8088 7.16C51.7688 4.89333 53.1421 3.16 54.9288 1.96C56.7154 0.759999 58.8488 0.159999 61.3288 0.159999C63.0888 0.159999 64.7954 0.439999 66.4488 0.999998C68.1021 1.56 69.5154 2.34667 70.6888 3.36L68.6488 7.84C66.2488 6 63.9021 5.08 61.6088 5.08C59.7421 5.08 58.2888 5.84 57.2488 7.36C56.2088 8.85333 55.6354 11.0533 55.5288 13.96C56.1421 12.8933 57.0221 12.0533 58.1688 11.44C59.3421 10.8 60.6354 10.48 62.0488 10.48ZM60.5688 24.48C61.8488 24.48 62.8621 24.0667 63.6088 23.24C64.3821 22.4133 64.7688 21.32 64.7688 19.96C64.7688 18.5467 64.3954 17.44 63.6488 16.64C62.9021 15.8133 61.8754 15.4 60.5688 15.4C59.2888 15.4 58.2488 15.8267 57.4488 16.68C56.6754 17.5067 56.2888 18.6 56.2888 19.96C56.2888 21.2933 56.6888 22.3867 57.4888 23.24C58.2888 24.0667 59.3154 24.48 60.5688 24.48ZM80.4331 22.56V26.68C80.4331 28.2533 80.1531 29.6667 79.5931 30.92C79.0598 32.2 78.1398 33.48 76.8331 34.76L74.4731 32.92C75.7798 31.56 76.5931 30.2533 76.9131 29H73.9131V22.56H80.4331ZM93.4619 0.159999C97.1685 0.159999 100.022 1.38667 102.022 3.84C104.022 6.29333 105.022 9.78667 105.022 14.32C105.022 17.44 104.542 20.1333 103.582 22.4C102.622 24.64 101.249 26.36 99.4619 27.56C97.6752 28.76 95.5419 29.36 93.0619 29.36C91.3019 29.36 89.5952 29.08 87.9419 28.52C86.2885 27.96 84.8752 27.1733 83.7019 26.16L85.7419 21.68C88.1685 23.52 90.5152 24.44 92.7819 24.44C94.6485 24.44 96.0885 23.6933 97.1019 22.2C98.1419 20.68 98.7152 18.4667 98.8219 15.56C98.2085 16.6267 97.3285 17.48 96.1819 18.12C95.0352 18.7333 93.7552 19.04 92.3419 19.04C90.6885 19.04 89.1952 18.6533 87.8619 17.88C86.5552 17.08 85.5285 15.9867 84.7819 14.6C84.0619 13.1867 83.7019 11.5867 83.7019 9.8C83.7019 7.96 84.1152 6.30667 84.9419 4.84C85.7952 3.37333 86.9552 2.22666 88.4219 1.4C89.9152 0.573332 91.5952 0.159999 93.4619 0.159999ZM93.8219 14.12C95.1019 14.12 96.1285 13.7067 96.9019 12.88C97.7019 12.0267 98.1019 10.92 98.1019 9.56C98.1019 8.22667 97.7019 7.14667 96.9019 6.32C96.1019 5.46667 95.0752 5.04 93.8219 5.04C92.5419 5.04 91.5152 5.45333 90.7419 6.28C89.9952 7.10667 89.6219 8.2 89.6219 9.56C89.6219 10.9733 89.9952 12.0933 90.7419 12.92C91.4885 13.72 92.5152 14.12 93.8219 14.12ZM120.486 10.48C122.14 10.48 123.62 10.88 124.926 11.68C126.26 12.4533 127.286 13.5467 128.006 14.96C128.753 16.3467 129.126 17.9333 129.126 19.72C129.126 21.56 128.7 23.2133 127.846 24.68C127.02 26.1467 125.86 27.2933 124.366 28.12C122.9 28.9467 121.233 29.36 119.366 29.36C115.66 29.36 112.806 28.1333 110.806 25.68C108.806 23.2267 107.806 19.7333 107.806 15.2C107.806 12.08 108.286 9.4 109.246 7.16C110.206 4.89333 111.58 3.16 113.366 1.96C115.153 0.759999 117.286 0.159999 119.766 0.159999C121.526 0.159999 123.233 0.439999 124.886 0.999998C126.54 1.56 127.953 2.34667 129.126 3.36L127.086 7.84C124.686 6 122.34 5.08 120.046 5.08C118.18 5.08 116.726 5.84 115.686 7.36C114.646 8.85333 114.073 11.0533 113.966 13.96C114.58 12.8933 115.46 12.0533 116.606 11.44C117.78 10.8 119.073 10.48 120.486 10.48ZM119.006 24.48C120.286 24.48 121.3 24.0667 122.046 23.24C122.82 22.4133 123.206 21.32 123.206 19.96C123.206 18.5467 122.833 17.44 122.086 16.64C121.34 15.8133 120.313 15.4 119.006 15.4C117.726 15.4 116.686 15.8267 115.886 16.68C115.113 17.5067 114.726 18.6 114.726 19.96C114.726 21.2933 115.126 22.3867 115.926 23.24C116.726 24.0667 117.753 24.48 119.006 24.48ZM142.391 29.36C138.951 29.36 136.311 28.1067 134.471 25.6C132.657 23.0933 131.751 19.4667 131.751 14.72C131.751 10.0267 132.657 6.44 134.471 3.96C136.311 1.48 138.951 0.239998 142.391 0.239998C145.831 0.239998 148.457 1.48 150.271 3.96C152.111 6.44 153.031 10.0267 153.031 14.72C153.031 19.4667 152.111 23.0933 150.271 25.6C148.457 28.1067 145.831 29.36 142.391 29.36ZM142.391 24.56C143.964 24.56 145.111 23.7867 145.831 22.24C146.551 20.6933 146.911 18.1867 146.911 14.72C146.911 11.3333 146.551 8.88 145.831 7.36C145.111 5.81333 143.964 5.04 142.391 5.04C140.817 5.04 139.671 5.81333 138.951 7.36C138.231 8.88 137.871 11.3333 137.871 14.72C137.871 18.1867 138.231 20.6933 138.951 22.24C139.671 23.7867 140.817 24.56 142.391 24.56Z" fill="url(#paint1_linear)"/>
<defs>
<linearGradient id="paint0_linear" x1="26.5353" y1="-7.00002" x2="155.06" y2="2.26454" gradientUnits="userSpaceOnUse">
<stop stop-color="#FF8A49"/>
<stop offset="1" stop-color="#7155FF"/>
</linearGradient>
<linearGradient id="paint1_linear" x1="26.5353" y1="-7.00002" x2="155.06" y2="2.26454" gradientUnits="userSpaceOnUse">
<stop stop-color="#FF8A49"/>
<stop offset="1" stop-color="#7155FF"/>
</linearGradient>
</defs>
</svg>
