<svg width="43" height="43" viewBox="0 0 43 43" fill="none" xmlns="http://www.w3.org/2000/svg">
<path d="M41.9989 26.0766C41.9989 20.2689 42.0011 14.4611 41.9966 8.65339C41.9954 6.57251 40.5297 5.11259 38.4509 5.1046C37.4692 5.10117 36.4863 5.09204 35.5046 5.11145C35.2192 5.11715 35.1427 5.03154 35.1598 4.75759C35.1826 4.3889 35.1724 4.01793 35.161 3.6481C35.1199 2.27036 34.0342 1.12548 32.6701 1.01133C31.3037 0.898328 30.0731 1.8035 29.7717 3.13558C29.6427 3.69946 29.7158 4.27019 29.7043 4.8375C29.6998 5.02812 29.6712 5.1103 29.4521 5.10916C27.8002 5.09889 26.1495 5.09775 24.4977 5.1103C24.25 5.11259 24.2237 5.01328 24.2295 4.81238C24.2397 4.41402 24.242 4.01565 24.2272 3.61728C24.1769 2.26351 23.097 1.13233 21.7489 1.01247C20.3881 0.891479 19.1461 1.79665 18.8402 3.12417C18.7112 3.68805 18.7854 4.25764 18.7694 4.82494C18.7648 4.99958 18.7694 5.11145 18.5308 5.10916C16.8653 5.09889 15.1998 5.10117 13.5342 5.10802C13.3459 5.10802 13.29 5.05437 13.2957 4.86717C13.3082 4.46881 13.3059 4.07044 13.2957 3.67207C13.2614 2.28862 12.1952 1.14374 10.8276 1.01247C9.4532 0.881206 8.20662 1.79894 7.90068 3.15385C7.78995 3.6481 7.81621 4.1492 7.84475 4.64231C7.86986 5.05209 7.7226 5.12286 7.35388 5.11259C6.47146 5.08633 5.58904 5.10346 4.70662 5.10346C2.42009 5.1046 1 6.51658 1 8.79264V35.5689C1 37.8507 2.41667 39.2684 4.69635 39.2684C10.8744 39.2695 17.0525 39.2695 23.2306 39.2684C23.3584 39.2684 23.4886 39.2775 23.6142 39.2627C23.9817 39.217 24.2511 38.9168 24.2272 38.5653C24.2009 38.1897 23.9863 37.966 23.6153 37.9101C23.476 37.8884 23.3311 37.9032 23.1895 37.9032C17.0251 37.9021 10.8619 37.9032 4.69749 37.9021C3.18607 37.9021 2.36758 37.0916 2.36758 35.5963C2.36644 28.7636 2.36986 21.9308 2.35845 15.0981C2.35731 14.7431 2.4395 14.6609 2.79452 14.6609C9.02968 14.6734 15.2648 14.67 21.4989 14.67C27.7489 14.67 33.9977 14.6723 40.2466 14.662C40.5651 14.662 40.6416 14.7351 40.6404 15.0547C40.6267 18.4859 40.6313 21.916 40.6324 25.3472C40.6324 25.6737 40.6176 26.0024 40.6393 26.3288C40.6644 26.7044 40.9578 26.9658 41.3128 26.9669C41.6667 26.9681 41.9509 26.7055 41.9931 26.3334C42.0034 26.2489 41.9989 26.1622 41.9989 26.0766ZM31.0674 3.78507C31.0765 2.96437 31.6724 2.36168 32.4509 2.37195C33.2078 2.38108 33.7911 2.98263 33.7968 3.78279C33.8048 5.11829 33.8048 6.45266 33.7968 7.78816C33.7911 8.60773 33.1884 9.2127 32.4121 9.20243C31.6564 9.19215 31.0765 8.58947 31.0674 7.79045C31.0594 7.12269 31.0662 6.45494 31.0662 5.78719C31.0662 5.11944 31.0594 4.45168 31.0674 3.78507ZM20.1347 3.78621C20.1393 2.96437 20.7374 2.36282 21.516 2.37195C22.2728 2.37994 22.8539 2.98149 22.8642 3.78051C22.8721 4.44826 22.8653 5.11601 22.8653 5.78376C22.8653 6.45038 22.8721 7.11813 22.8642 7.78588C22.855 8.60659 22.2568 9.21156 21.4806 9.20243C20.7249 9.1933 20.1393 8.59061 20.1347 7.79159C20.1279 6.45722 20.1279 5.12172 20.1347 3.78621ZM9.20205 3.78279C9.20662 2.9792 9.78539 2.38222 10.5457 2.37195C11.3208 2.36053 11.9212 2.96665 11.9315 3.78507C11.9395 4.46652 11.9326 5.14911 11.9326 5.83056C11.9326 6.48348 11.9395 7.13753 11.9315 7.79045C11.9212 8.60887 11.3196 9.21384 10.5434 9.20243C9.78881 9.19101 9.20662 8.58718 9.20205 7.78702C9.1952 6.45266 9.19406 5.11715 9.20205 3.78279ZM40.242 13.3025C33.9943 13.3037 27.7454 13.3037 21.4977 13.3037C15.2637 13.3037 9.02968 13.3003 2.79566 13.3117C2.44406 13.3128 2.35046 13.2352 2.35731 12.8768C2.38128 11.4831 2.3653 10.0882 2.36758 8.69334C2.36986 7.31103 3.2169 6.4732 4.60845 6.47092C5.57648 6.46864 6.54452 6.48119 7.51256 6.46293C7.77626 6.45837 7.84361 6.52685 7.84132 6.79167C7.8379 7.3293 7.78082 7.87149 7.89954 8.40797C8.19977 9.76517 9.44064 10.6863 10.8151 10.5619C12.1815 10.4375 13.258 9.2926 13.2957 7.91486C13.3071 7.53019 13.3071 7.14552 13.2968 6.76199C13.2911 6.56224 13.3151 6.46179 13.5639 6.46407C15.2158 6.47663 16.8664 6.47435 18.5171 6.46521C18.734 6.46407 18.7671 6.54283 18.7717 6.7346C18.782 7.3019 18.71 7.87263 18.8379 8.43651C19.1393 9.76745 20.3733 10.676 21.7352 10.5619C23.1005 10.4478 24.1861 9.30402 24.2283 7.92742C24.2397 7.53019 24.242 7.13068 24.2283 6.73232C24.2215 6.53484 24.2705 6.46407 24.484 6.46521C26.1347 6.47435 27.7865 6.47663 29.4372 6.46407C29.6918 6.46179 29.6986 6.57023 29.7032 6.76428C29.7169 7.31788 29.645 7.87377 29.7683 8.42395C30.0708 9.77544 31.3299 10.6966 32.6975 10.5608C34.0662 10.4249 35.1279 9.28119 35.1621 7.89888C35.1712 7.51421 35.1792 7.12954 35.1598 6.74601C35.1484 6.51544 35.2283 6.46293 35.4463 6.46521C36.5 6.47663 37.5525 6.45951 38.6062 6.47435C39.7237 6.49033 40.613 7.36697 40.6256 8.48331C40.6438 9.99117 40.6176 11.5002 40.6416 13.0092C40.6484 13.3779 40.4429 13.3025 40.242 13.3025Z" fill="#2A263E" stroke="#2A263E" stroke-width="0.3"/>
<path d="M38.0297 30.2853C38.2055 30.4702 38.274 30.6917 38.1838 30.9519C38.1256 31.122 38.0126 31.243 37.8916 31.3629C36.0514 33.2029 34.2123 35.0418 32.3733 36.8829C32.1998 37.0564 32.0205 37.214 31.7409 37.2185C31.5274 37.2174 31.3527 37.1067 31.1975 36.9503C30.2831 36.0348 29.3653 35.1228 28.4543 34.2051C28.0982 33.8444 28.081 33.4529 28.3904 33.1561C28.6941 32.8627 29.0719 32.8936 29.4395 33.2577C30.1267 33.938 30.8151 34.616 31.4852 35.3123C31.6884 35.5246 31.8014 35.5315 32.0137 35.3169C33.6324 33.6789 35.2648 32.0546 36.8927 30.4257C37.0228 30.2956 37.1473 30.1632 37.3333 30.1015C37.6107 30.0079 37.8413 30.0878 38.0297 30.2853Z" fill="#2A263E" stroke="#2A263E" stroke-width="0.3"/>
<path d="M33.1476 24.2363C28.2378 24.2352 24.223 28.2177 24.2344 33.0758C24.247 38.0605 28.2081 42.0065 33.191 41.9997C38.0506 41.9917 42.0164 37.9635 41.9981 33.0541C41.9787 28.2166 37.9855 24.2375 33.1476 24.2363ZM33.1351 40.6356C28.9798 40.6322 25.5951 37.2638 25.6008 33.1386C25.6077 28.9391 28.9684 25.5992 33.1807 25.6038C37.2949 25.6084 40.6476 29.0202 40.6317 33.1842C40.6145 37.2695 37.2253 40.6391 33.1351 40.6356Z" fill="#2A263E" stroke="#2A263E" stroke-width="0.3"/>
<path d="M11.9283 19.4168C11.91 18.6748 11.3335 18.1018 10.5904 18.0893C9.66685 18.0744 8.74333 18.0744 7.82096 18.0893C7.05155 18.1007 6.4842 18.676 6.4705 19.4464C6.45795 20.1279 6.45795 20.8105 6.46936 21.4919C6.48306 22.2807 7.0584 22.8491 7.85178 22.8663C8.29128 22.8754 8.73192 22.8674 9.17256 22.8674C9.64059 22.8674 10.1098 22.8777 10.579 22.8651C11.3438 22.8446 11.9146 22.2738 11.9294 21.5045C11.9431 20.8093 11.9454 20.1131 11.9283 19.4168ZM10.305 21.5056C9.93512 21.4908 9.56525 21.5011 9.19539 21.5011C8.82553 21.5011 8.45452 21.4885 8.0858 21.5056C7.87233 21.5159 7.82438 21.4383 7.82895 21.2397C7.84151 20.7283 7.84379 20.2146 7.82895 19.7033C7.8221 19.4898 7.89744 19.4442 8.09493 19.4476C8.83466 19.4579 9.57553 19.459 10.3141 19.4464C10.5276 19.443 10.5755 19.5149 10.571 19.7135C10.5584 20.2249 10.5561 20.7374 10.5721 21.25C10.5778 21.4623 10.5036 21.5136 10.305 21.5056Z" fill="#2A263E" stroke="#2A263E" stroke-width="0.3"/>
<path d="M20.131 19.4983C20.1196 18.6776 19.5534 18.0989 18.7418 18.0897C17.8468 18.0795 16.9518 18.0795 16.0568 18.0897C15.2578 18.0977 14.6836 18.6639 14.6687 19.4538C14.6573 20.1352 14.6573 20.8178 14.6687 21.4993C14.6824 22.2857 15.2623 22.8519 16.0557 22.8679C16.4963 22.8759 16.937 22.869 17.3776 22.869C17.8171 22.8702 18.2578 22.8736 18.6984 22.869C19.5454 22.8576 20.1196 22.296 20.131 21.4582C20.139 20.8053 20.139 20.1512 20.131 19.4983ZM18.082 21.5027C17.4849 21.5027 16.8868 21.4947 16.2897 21.5073C16.0842 21.5118 16.0226 21.4513 16.0283 21.2459C16.042 20.7345 16.042 20.222 16.0283 19.7095C16.0226 19.504 16.0842 19.4401 16.2897 19.4492C16.6596 19.4641 17.0294 19.4526 17.3993 19.4526V19.472C17.8388 19.472 18.4313 19.2997 18.6767 19.5177C18.9575 19.7677 18.7532 20.3704 18.7623 20.8201C18.776 21.5027 18.7657 21.5027 18.082 21.5027Z" fill="#2A263E" stroke="#2A263E" stroke-width="0.3"/>
<path d="M28.3267 19.3984C28.3062 18.6781 27.7331 18.1062 27.0128 18.0914C26.0756 18.0731 25.1372 18.0743 24.2 18.0914C23.4546 18.104 22.8872 18.6781 22.8701 19.4246C22.8552 20.1209 22.8564 20.8172 22.8701 21.5135C22.8849 22.276 23.4625 22.8467 24.2274 22.8661C24.6817 22.8775 25.1372 22.8684 25.5915 22.8684C26.0607 22.8672 26.5299 22.8798 26.9979 22.865C27.7399 22.841 28.3107 22.2726 28.3278 21.5283C28.3438 20.8183 28.3461 20.1072 28.3267 19.3984ZM26.9705 21.2452C26.9762 21.4507 26.9157 21.5158 26.7091 21.5066C26.3404 21.4907 25.9694 21.5021 25.523 21.5021C25.1509 21.4655 24.5493 21.6961 24.297 21.4142C24.0756 21.1665 24.2354 20.5752 24.2331 20.1369C24.2308 19.452 24.2331 19.452 24.9157 19.452C25.5139 19.452 26.1109 19.4611 26.7091 19.4474C26.9135 19.444 26.9762 19.5022 26.9705 19.7088C26.9568 20.2202 26.9568 20.7339 26.9705 21.2452Z" fill="#2A263E" stroke="#2A263E" stroke-width="0.3"/>
<path d="M36.5283 19.4923C36.5181 18.6739 35.9473 18.0963 35.1345 18.0872C34.2395 18.0781 33.3446 18.0769 32.4496 18.0884C31.6539 18.0975 31.0809 18.6659 31.0672 19.457C31.0557 20.1384 31.0557 20.821 31.0672 21.5024C31.0809 22.2684 31.6539 22.8437 32.4165 22.8653C32.8708 22.8779 33.3251 22.8676 33.7806 22.8676C34.235 22.8676 34.6893 22.8756 35.1436 22.8665C35.937 22.8505 36.5135 22.2832 36.5272 21.4945C36.5398 20.8267 36.5375 20.159 36.5283 19.4923ZM35.1688 21.2399C35.1733 21.4385 35.1254 21.5161 34.9119 21.5059C34.5283 21.4899 34.1436 21.5013 33.6859 21.5013C33.3251 21.4625 32.743 21.6942 32.4964 21.418C32.2818 21.1783 32.4336 20.6075 32.4313 20.1829C32.4279 19.4513 32.4313 19.4513 33.1528 19.4513C33.7361 19.4513 34.3194 19.4592 34.9028 19.4478C35.1003 19.4433 35.1756 19.4901 35.1688 19.7035C35.1539 20.2149 35.1562 20.7285 35.1688 21.2399Z" fill="#2A263E" stroke="#2A263E" stroke-width="0.3"/>
<path d="M11.9281 25.55C11.9076 24.8298 11.3368 24.2568 10.6165 24.2419C9.67926 24.2237 8.7409 24.2248 7.80369 24.2408C7.05826 24.2545 6.48976 24.8275 6.47264 25.5729C6.45666 26.268 6.4578 26.9654 6.4715 27.6606C6.48634 28.4242 7.06168 28.9961 7.82766 29.0166C8.282 29.0281 8.73634 29.0189 9.19068 29.0178C9.65985 29.0178 10.129 29.0303 10.5971 29.0155C11.3402 28.9915 11.9121 28.4242 11.9293 27.6811C11.9452 26.9711 11.9475 26.26 11.9281 25.55ZM10.5662 26.9677C10.5697 27.6526 10.5674 27.6526 9.88474 27.6526C9.28771 27.6526 8.68953 27.6446 8.0925 27.6572C7.88931 27.6617 7.82424 27.6047 7.82994 27.3969C7.84364 26.8855 7.84364 26.373 7.82994 25.8605C7.82424 25.6562 7.88246 25.5888 8.09022 25.598C8.45894 25.614 8.82994 25.6025 9.27743 25.6025C9.64844 25.6391 10.25 25.4096 10.5035 25.6904C10.7238 25.937 10.5651 26.5283 10.5662 26.9677Z" fill="#2A263E" stroke="#2A263E" stroke-width="0.3"/>
<path d="M20.1273 25.55C20.1068 24.8298 19.5349 24.2568 18.8157 24.2419C17.8785 24.2237 16.9401 24.2248 16.0029 24.2408C15.2575 24.2545 14.689 24.8275 14.6719 25.5729C14.6559 26.268 14.657 26.9654 14.6707 27.6606C14.6844 28.4242 15.2609 28.9961 16.0269 29.0166C16.4812 29.0281 16.9356 29.0189 17.3899 29.0178C17.8591 29.0178 18.3283 29.0303 18.7963 29.0155C19.5394 28.9915 20.1114 28.4242 20.1285 27.6811C20.1445 26.9711 20.1467 26.26 20.1273 25.55ZM18.5018 27.656C18.1319 27.6435 17.762 27.6526 17.3922 27.6526C17.036 27.6526 16.6798 27.6446 16.3248 27.656C16.1251 27.6617 16.0166 27.6378 16.0269 27.3878C16.0486 26.8764 16.044 26.3628 16.028 25.8514C16.0212 25.6334 16.1056 25.5957 16.2986 25.5991C17.0383 25.6082 17.778 25.6105 18.5177 25.598C18.7358 25.5934 18.7746 25.6733 18.7712 25.8674C18.7586 26.3799 18.7563 26.8924 18.7723 27.4038C18.7792 27.6218 18.6958 27.6629 18.5018 27.656Z" fill="#2A263E" stroke="#2A263E" stroke-width="0.3"/>
<path d="M11.9305 31.7914C11.9203 30.973 11.3495 30.3966 10.5356 30.3886C9.64173 30.3783 8.74562 30.3783 7.85178 30.3886C7.05498 30.3977 6.48306 30.9673 6.46936 31.7595C6.45795 32.4409 6.45795 33.1224 6.4705 33.8049C6.4842 34.5697 7.05726 35.145 7.82096 35.1656C8.27416 35.1781 8.72963 35.1678 9.18397 35.1678C9.63831 35.1678 10.0938 35.1758 10.5481 35.1667C11.3404 35.1507 11.9157 34.5834 11.9305 33.7935C11.942 33.1269 11.9397 32.4592 11.9305 31.7914ZM10.571 33.5458C10.5767 33.7524 10.5139 33.8152 10.3095 33.8061C9.93968 33.7912 9.56982 33.8027 9.19995 33.8027V33.7833C8.76046 33.7833 8.16799 33.9556 7.92256 33.7376C7.64174 33.4876 7.84607 32.8849 7.83694 32.4352C7.82324 31.7526 7.83352 31.7526 8.51731 31.7526C9.11548 31.7526 9.71251 31.7606 10.3107 31.748C10.5162 31.7435 10.5767 31.8051 10.571 32.0094C10.5573 32.5219 10.5573 33.0345 10.571 33.5458Z" fill="#2A263E" stroke="#2A263E" stroke-width="0.3"/>
<path d="M20.1298 31.7674C20.1161 30.9753 19.5442 30.4045 18.7542 30.3874C18.2987 30.3783 17.8444 30.3863 17.39 30.3863C16.9357 30.3863 16.4802 30.3771 16.0259 30.3886C15.2553 30.4068 14.6846 30.9718 14.6697 31.7412C14.656 32.4226 14.6583 33.1041 14.6686 33.7855C14.6811 34.5766 15.2531 35.1553 16.0442 35.1656C16.9528 35.177 17.8615 35.1792 18.7713 35.1644C19.5373 35.153 20.1126 34.5777 20.1286 33.8129C20.1423 33.1303 20.1412 32.4489 20.1298 31.7674ZM18.4334 33.8072C18.0784 33.7878 17.7222 33.8027 17.293 33.8027C16.9311 33.7661 16.3501 33.9921 16.1012 33.7205C15.8866 33.4865 16.0362 32.9123 16.0339 32.4888C16.0293 31.7526 16.0327 31.7526 16.7485 31.7526C17.3181 31.7526 17.8878 31.7617 18.4563 31.748C18.6823 31.7412 18.7839 31.7834 18.7725 32.0414C18.7508 32.5242 18.7462 33.0105 18.7736 33.4922C18.7896 33.7787 18.6777 33.8198 18.4334 33.8072Z" fill="#2A263E" stroke="#2A263E" stroke-width="0.3"/>
<path d="M25.5553 24.2371C26.0108 24.2371 26.4663 24.228 26.9218 24.2394C27.3579 24.2497 27.6444 24.527 27.6467 24.9151C27.649 25.3032 27.3624 25.5932 26.9298 25.5989C26.133 25.6103 25.3362 25.6103 24.5394 25.5977C24.3065 25.5943 24.214 25.6445 24.2277 25.8968C24.2494 26.2803 24.2403 26.665 24.2311 27.0497C24.2243 27.3704 24.1878 27.6535 24.6136 27.7973C24.8955 27.8921 24.9789 28.2231 24.8818 28.529C24.7802 28.8475 24.5462 29.0107 24.2083 29.0175C23.5302 29.0312 22.8955 28.4365 22.8738 27.7243C22.851 26.9994 22.8533 26.2723 22.8727 25.5475C22.8921 24.8227 23.4617 24.2656 24.19 24.2405C24.6444 24.2246 25.0999 24.2371 25.5553 24.2371Z" fill="#2A263E" stroke="#2A263E" stroke-width="0.3"/>
<path d="M38.1838 30.9519C38.1256 31.122 38.0126 31.243 37.8916 31.3629C36.0514 33.2029 34.2123 35.0418 32.3733 36.8829C32.1998 37.0564 32.0205 37.214 31.7409 37.2185C31.5274 37.2174 31.3527 37.1067 31.1975 36.9503C30.2831 36.0348 29.3653 35.1228 28.4543 34.2051C28.0982 33.8444 28.081 33.4529 28.3904 33.1561C28.6941 32.8627 29.0719 32.8936 29.4395 33.2577C30.1267 33.938 30.8151 34.616 31.4852 35.3123C31.6884 35.5246 31.8014 35.5315 32.0137 35.3169C33.6324 33.6789 35.2648 32.0546 36.8927 30.4257C37.0228 30.2956 37.1473 30.1632 37.3333 30.1015C37.6107 30.0079 37.8413 30.0878 38.0297 30.2853C38.2055 30.4702 38.274 30.6917 38.1838 30.9519Z" fill="#FEFEFE" stroke="#2A263E" stroke-width="0.3"/>
<path d="M38.1838 30.9519C38.1256 31.122 38.0126 31.243 37.8916 31.3629C36.0514 33.2029 34.2123 35.0418 32.3733 36.8829C32.1998 37.0564 32.0205 37.214 31.7409 37.2185C31.5274 37.2174 31.3527 37.1067 31.1975 36.9503C30.2831 36.0348 29.3653 35.1228 28.4543 34.2051C28.0982 33.8444 28.081 33.4529 28.3904 33.1561C28.6941 32.8627 29.0719 32.8936 29.4395 33.2577C30.1267 33.938 30.8151 34.616 31.4852 35.3123C31.6884 35.5246 31.8014 35.5315 32.0137 35.3169C33.6324 33.6789 35.2648 32.0546 36.8927 30.4257C37.0228 30.2956 37.1473 30.1632 37.3333 30.1015C37.6107 30.0079 37.8413 30.0878 38.0297 30.2853C38.2055 30.4702 38.274 30.6917 38.1838 30.9519Z" fill="#2A263E" stroke="#2A263E" stroke-width="0.3"/>
</svg>
