<svg width="43" height="37" viewBox="0 0 43 37" fill="none" xmlns="http://www.w3.org/2000/svg">
<path d="M8.52539 13.7918C8.52432 13.3839 8.80898 13.1278 9.29161 13.1257C10.8519 13.1215 12.4121 13.1247 13.9734 13.1247C15.4802 13.1247 16.9869 13.1236 18.4937 13.1247C18.6146 13.1247 18.7355 13.1173 18.8532 13.1341C19.1828 13.1795 19.3862 13.366 19.4311 13.6927C19.4771 14.0321 19.3369 14.2839 19.0073 14.4083C18.8982 14.4494 18.7741 14.4673 18.6574 14.4673C15.5358 14.4705 12.4153 14.4715 9.29482 14.4673C8.82289 14.4663 8.52646 14.1912 8.52539 13.7918Z" fill="#2A263E" stroke="#2A263E" stroke-width="0.5"/>
<path d="M8.52655 11.0602C8.54474 10.7145 8.79515 10.4584 9.17398 10.4415C9.59989 10.4226 10.0269 10.4321 10.4539 10.4321H13.9746C15.5348 10.4321 17.0951 10.4289 18.6554 10.4342C19.1251 10.4352 19.3863 10.6365 19.4333 11.0022C19.4804 11.3605 19.2878 11.6514 18.9304 11.7421C18.8159 11.7705 18.6939 11.7779 18.5751 11.7779C15.5209 11.78 12.4678 11.78 9.41369 11.7789C9.30774 11.7789 9.19859 11.7779 9.09586 11.7579C8.72987 11.6873 8.50729 11.409 8.52655 11.0602Z" fill="#2A263E" stroke="#2A263E" stroke-width="0.5"/>
<path d="M8.63365 16.1169C8.7749 15.9019 8.98679 15.8145 9.24683 15.8145C12.408 15.8166 15.5692 15.8134 18.7303 15.8187C19.1723 15.8187 19.4484 16.1011 19.4409 16.4984C19.4324 16.8894 19.1498 17.155 18.7004 17.1571C17.1262 17.1634 15.5521 17.1592 13.9779 17.1592C12.4176 17.1592 10.8574 17.1582 9.29713 17.1603C8.99214 17.1603 8.74922 17.0623 8.60154 16.7893C8.47634 16.5596 8.49453 16.3309 8.63365 16.1169Z" fill="#2A263E" stroke="#2A263E" stroke-width="0.5"/>
<path d="M9.07573 22.5333C9.53374 22.3436 9.96287 22.1075 10.3053 21.7481C10.6103 21.4299 10.7291 21.0304 10.7548 20.5983C10.7804 20.1589 10.9699 19.9165 11.3219 19.8543C11.6558 19.7963 11.9501 19.9786 12.1085 20.3802C12.3332 20.9514 12.6992 21.4035 13.2193 21.7313C13.6281 21.9884 13.7736 21.9252 13.8528 21.4625C13.9074 21.1453 14.069 20.9261 14.3986 20.866C14.7431 20.8028 15.0128 20.9377 15.153 21.2465C15.305 21.5848 15.5832 21.7302 15.9149 21.8187C17.0471 22.118 18.1815 22.3984 19.3704 22.372C19.8284 22.3626 20.1377 22.6598 20.1323 23.0518C20.127 23.4291 19.8241 23.7042 19.3854 23.7084C17.8369 23.72 16.3473 23.4217 14.909 22.8642C14.8148 22.8273 14.7442 22.7641 14.6276 22.8516C13.8314 23.4481 13.0598 23.2721 12.3139 22.7504C12.0978 22.5997 11.9019 22.4195 11.6612 22.2234C11.1561 22.9728 10.4273 23.4396 9.60437 23.7779C9.12067 23.9771 8.7183 23.8433 8.56527 23.4523C8.4176 23.0739 8.60273 22.7304 9.07573 22.5333Z" fill="#2A263E" stroke="#2A263E" stroke-width="0.5"/>
<path d="M21.3796 25.2258C21.8804 25.2406 22.1844 25.5051 22.1769 25.9161C22.1694 26.3145 21.8783 26.5706 21.3935 26.5706C17.097 26.5737 12.8004 26.5906 8.50379 26.5622C6.53046 26.5495 5.10719 25.0783 5.09756 23.1275C5.08686 20.9059 5.09435 18.6853 5.09435 16.4647C5.09435 14.3085 5.09328 12.1532 5.09542 9.99801C5.09649 7.81855 6.53689 6.38735 8.74029 6.38525C12.6773 6.38103 16.6133 6.38314 20.5503 6.38525C20.6958 6.38525 20.8467 6.38841 20.9858 6.42319C21.3283 6.50855 21.5059 6.74673 21.492 7.08609C21.4792 7.42439 21.2876 7.65203 20.9377 7.71C20.7814 7.73635 20.6188 7.73213 20.4593 7.73213C16.5897 7.73318 12.7201 7.73213 8.84944 7.73318C7.25601 7.73318 6.46091 8.51307 6.46091 10.076C6.46091 14.3464 6.48552 18.6179 6.44592 22.8893C6.43308 24.233 7.3031 25.2627 8.84944 25.2427C12.932 25.1921 17.0156 25.2258 21.0993 25.2258C21.1924 25.2258 21.2865 25.2237 21.3796 25.2258Z" fill="#2A263E" stroke="#2A263E" stroke-width="0.5"/>
<path d="M30.4357 7.06414C27.3847 7.04727 24.932 9.43647 24.9266 12.4327C24.9213 15.411 27.3505 17.815 30.3768 17.8255C33.3764 17.836 35.827 15.4469 35.8452 12.4928C35.8634 9.50391 33.4481 7.081 30.4357 7.06414ZM30.3929 16.4744C28.1274 16.4797 26.3007 14.6912 26.2943 12.4601C26.2868 10.2332 28.106 8.42051 30.3597 8.40786C32.6348 8.39627 34.4797 10.2058 34.4797 12.4475C34.4787 14.6765 32.6605 16.4691 30.3929 16.4744ZM30.4357 7.06414C27.3847 7.04727 24.932 9.43647 24.9266 12.4327C24.9213 15.411 27.3505 17.815 30.3768 17.8255C33.3764 17.836 35.827 15.4469 35.8452 12.4928C35.8634 9.50391 33.4481 7.081 30.4357 7.06414ZM30.3929 16.4744C28.1274 16.4797 26.3007 14.6912 26.2943 12.4601C26.2868 10.2332 28.106 8.42051 30.3597 8.40786C32.6348 8.39627 34.4797 10.2058 34.4797 12.4475C34.4787 14.6765 32.6605 16.4691 30.3929 16.4744ZM30.4357 7.06414C27.3847 7.04727 24.932 9.43647 24.9266 12.4327C24.9213 15.411 27.3505 17.815 30.3768 17.8255C33.3764 17.836 35.827 15.4469 35.8452 12.4928C35.8634 9.50391 33.4481 7.081 30.4357 7.06414ZM30.3929 16.4744C28.1274 16.4797 26.3007 14.6912 26.2943 12.4601C26.2868 10.2332 28.106 8.42051 30.3597 8.40786C32.6348 8.39627 34.4797 10.2058 34.4797 12.4475C34.4787 14.6765 32.6605 16.4691 30.3929 16.4744ZM30.4357 7.06414C27.3847 7.04727 24.932 9.43647 24.9266 12.4327C24.9213 15.411 27.3505 17.815 30.3768 17.8255C33.3764 17.836 35.827 15.4469 35.8452 12.4928C35.8634 9.50391 33.4481 7.081 30.4357 7.06414ZM30.3929 16.4744C28.1274 16.4797 26.3007 14.6912 26.2943 12.4601C26.2868 10.2332 28.106 8.42051 30.3597 8.40786C32.6348 8.39627 34.4797 10.2058 34.4797 12.4475C34.4787 14.6765 32.6605 16.4691 30.3929 16.4744ZM42.0017 3.91192C41.991 3.90455 41.9728 3.89928 41.9707 3.88979C41.4538 1.8916 40.2884 1 38.192 1H4.68187C2.44208 1 1.00276 2.41433 1.00276 4.61593C1.00169 12.5276 1.00169 20.4392 1.00276 28.3519C1.00276 30.5513 2.44422 31.9657 4.68401 31.9678C6.59206 31.9688 8.50011 31.9678 10.4092 31.9678C15.106 31.9678 19.8039 31.972 24.5007 31.9583C24.8635 31.9572 24.9438 32.0521 24.9341 32.3936C24.9095 33.3263 24.9299 34.26 24.9234 35.1927C24.9202 35.5384 25.0123 35.8135 25.3654 35.9494C25.7057 36.0811 25.954 35.9325 26.1851 35.7039C26.824 35.0694 27.4757 34.4476 28.1039 33.8026C28.2901 33.6119 28.3907 33.6224 28.5694 33.8047C29.2008 34.4465 29.8493 35.0715 30.4892 35.706C30.7193 35.9336 30.9686 36.0854 31.3079 35.9484C31.6535 35.8082 31.7573 35.5384 31.7552 35.1906C31.7477 34.2579 31.7669 33.3241 31.7445 32.3914C31.7359 32.0637 31.7958 31.953 32.1661 31.9572C34.2603 31.9794 36.3567 31.9752 38.451 31.9657C40.2606 31.9572 41.7117 30.78 41.9332 29.1634C42.007 29.0358 41.9064 28.8788 42.0017 28.7544V3.91192ZM30.3758 33.7036C29.9017 33.2304 29.4801 32.8067 29.0552 32.3872C28.4677 31.8076 28.212 31.8086 27.6266 32.3841C27.2199 32.7835 26.8133 33.1808 26.4056 33.5792C26.3895 33.595 26.3649 33.6013 26.2921 33.6393V33.283C26.2921 29.0242 26.2911 24.7665 26.2986 20.5077C26.2986 20.3696 26.1691 20.1104 26.458 20.1114C26.7705 20.1135 27.1504 19.7699 27.3944 20.2147C27.7122 20.7912 28.1777 21.1347 28.8455 21.1822C29.1301 21.2022 29.0178 21.4045 29.0188 21.53C29.0253 23.7126 29.0231 25.8942 29.0231 28.0757C29.0231 28.1674 29.0285 28.2602 29.0231 28.3519C29.0017 28.6965 29.0381 29.0242 29.3977 29.1918C29.7636 29.3615 30.0697 29.2297 30.3758 28.8714V33.7036ZM29.2329 19.7394C28.9857 19.9059 28.7791 19.889 28.6293 19.6298C28.1392 18.7814 27.4201 18.5 26.4666 18.7456C26.1808 18.8193 26.0235 18.6981 25.97 18.3978C25.7924 17.4092 25.3558 16.9645 24.3755 16.8001C23.9946 16.7358 23.9229 16.5461 23.9999 16.2183C24.2129 15.3183 23.9518 14.707 23.1524 14.2106C22.8196 14.003 22.7896 13.8597 23.0165 13.5446C23.5708 12.7721 23.5729 12.1113 23.0047 11.3388C22.8024 11.0647 22.8345 10.874 23.1278 10.6927C23.9742 10.1679 24.1957 9.62827 23.9914 8.62391C23.9261 8.30036 24.0384 8.13279 24.3852 8.08642C25.2637 7.96838 25.8042 7.44881 25.9615 6.60148C26.0503 6.12195 26.1241 6.07242 26.5896 6.17992C27.4104 6.37067 28.1242 6.07453 28.5747 5.35682C28.8123 4.97847 28.9343 4.95423 29.3014 5.21349C30.0194 5.72147 30.746 5.71725 31.4823 5.2019C31.8311 4.95634 31.9574 4.98163 32.1821 5.3389C32.6573 6.09666 33.3443 6.37067 34.2347 6.162C34.6167 6.07136 34.7408 6.15462 34.8029 6.53824C34.9463 7.43722 35.476 7.95257 36.3995 8.09169C36.7002 8.13701 36.8051 8.23818 36.8041 8.50482C36.7966 8.54276 36.7826 8.60705 36.7677 8.67133C36.5558 9.55134 36.8297 10.1984 37.6184 10.6822C37.9566 10.8887 37.9876 11.0321 37.7607 11.3461C37.2021 12.1218 37.2021 12.7657 37.764 13.553C37.9876 13.865 37.9544 14.0062 37.612 14.2159C36.8233 14.6986 36.5579 15.332 36.7698 16.2278C36.8586 16.6019 36.7773 16.7231 36.3878 16.7948C35.4161 16.9761 34.9731 17.4187 34.8018 18.4041C34.7494 18.7045 34.5825 18.8172 34.2967 18.7445C33.3443 18.5021 32.6263 18.7835 32.1393 19.6361C31.9917 19.8943 31.7776 19.9038 31.5326 19.7362C30.6722 19.1481 30.1104 19.1492 29.2329 19.7394ZM30.4047 26.9575V20.6763C30.5502 20.6373 30.6251 20.7459 30.7171 20.8123C31.6364 21.4752 32.7322 21.2602 33.3251 20.3022C33.4888 20.0376 34.2325 19.9238 34.4348 20.142C34.4787 20.1894 34.4776 20.2885 34.4776 20.3633C34.4787 22.5027 34.4787 24.6432 34.4776 26.7836C34.4776 26.8174 34.4605 26.8511 34.4412 26.928C33.9596 26.4548 33.5038 26.0027 33.0436 25.5548C32.5942 25.1185 32.2678 25.1206 31.8172 25.5622C31.3635 26.0069 30.913 26.4548 30.4047 26.9575ZM40.6373 28.4067C40.6373 29.7799 39.7929 30.6167 38.3975 30.6198C36.3032 30.6241 34.2079 30.6135 32.1126 30.6283C31.8033 30.6304 31.7348 30.545 31.7455 30.2552C31.768 29.6123 31.8001 28.9631 31.7391 28.3255C31.676 27.6752 31.8954 27.2157 32.4711 26.8796C33.1528 27.5551 33.8526 28.2391 34.5407 28.9357C34.7943 29.1929 35.0694 29.3541 35.4279 29.2118C35.7949 29.0674 35.8506 28.7544 35.8495 28.4003C35.8431 25.5348 35.8548 22.6703 35.8388 19.8058C35.8356 19.2746 36.1844 18.8541 36.2208 18.3398C36.2326 18.1733 36.4477 18.1469 36.6104 18.1206C37.7822 17.9372 38.3579 17.0857 38.0893 15.9264C38.0283 15.6597 38.0914 15.4901 38.344 15.3425C39.3574 14.7481 39.5618 13.7026 38.8555 12.7562C38.6843 12.5265 38.6939 12.3526 38.8641 12.125C39.565 11.188 39.3531 10.1436 38.3354 9.53975C38.0797 9.38799 38.0304 9.21409 38.0925 8.95167C38.3643 7.81557 37.7586 6.92186 36.5975 6.76167C36.3064 6.72162 36.1887 6.59199 36.1513 6.31271C36.0025 5.20295 35.0651 4.57588 33.9586 4.84673C33.6504 4.92261 33.4717 4.84673 33.3058 4.57166C32.7354 3.62316 31.6321 3.41554 30.731 4.07949C30.4924 4.2555 30.3051 4.27552 30.0558 4.09319C29.1258 3.41132 28.0343 3.61472 27.4543 4.58642C27.2831 4.87203 27.0926 4.91524 26.7951 4.84252C25.7153 4.57799 24.7672 5.21033 24.6238 6.29058C24.5853 6.58145 24.4686 6.72373 24.154 6.76483C23.0272 6.91343 22.3894 7.84929 22.6697 8.93165C22.7436 9.21831 22.6869 9.39115 22.4215 9.54923C21.4145 10.1489 21.2101 11.1923 21.9153 12.1387C22.0908 12.3747 22.0726 12.5444 21.9057 12.7689C21.2047 13.7026 21.4198 14.746 22.4386 15.3499C22.6911 15.4995 22.7436 15.6713 22.6762 15.939C22.399 17.0435 23.0111 17.9583 24.1347 18.1164C24.428 18.1575 24.5296 18.3019 24.6334 18.5759C25.1407 19.9143 24.8935 21.297 24.9149 22.6587C24.9534 25.1817 24.9213 27.7058 24.932 30.2288C24.9331 30.525 24.8753 30.6293 24.5435 30.6283C17.898 30.6177 11.2525 30.6219 4.60696 30.6198C3.21151 30.6188 2.36718 29.7809 2.36718 28.4077C2.36611 20.4571 2.36611 12.5065 2.36718 4.55586C2.36718 3.18263 3.21579 2.34583 4.60803 2.34478C15.8701 2.34372 27.1322 2.34372 38.3943 2.34478C39.7876 2.34583 40.6373 3.18368 40.6373 4.5548C40.6383 12.5054 40.6383 20.456 40.6373 28.4067ZM35.8452 12.4928C35.8634 9.50391 33.4481 7.081 30.4357 7.06414C27.3847 7.04727 24.932 9.43647 24.9266 12.4327C24.9213 15.411 27.3505 17.815 30.3768 17.8255C33.3764 17.836 35.827 15.4469 35.8452 12.4928ZM30.3929 16.4744C28.1274 16.4797 26.3007 14.6912 26.2943 12.4601C26.2868 10.2332 28.106 8.42051 30.3597 8.40786C32.6348 8.39627 34.4797 10.2058 34.4797 12.4475C34.4787 14.6765 32.6605 16.4691 30.3929 16.4744ZM30.4357 7.06414C27.3847 7.04727 24.932 9.43647 24.9266 12.4327C24.9213 15.411 27.3505 17.815 30.3768 17.8255C33.3764 17.836 35.827 15.4469 35.8452 12.4928C35.8634 9.50391 33.4481 7.081 30.4357 7.06414ZM30.3929 16.4744C28.1274 16.4797 26.3007 14.6912 26.2943 12.4601C26.2868 10.2332 28.106 8.42051 30.3597 8.40786C32.6348 8.39627 34.4797 10.2058 34.4797 12.4475C34.4787 14.6765 32.6605 16.4691 30.3929 16.4744ZM30.4357 7.06414C27.3847 7.04727 24.932 9.43647 24.9266 12.4327C24.9213 15.411 27.3505 17.815 30.3768 17.8255C33.3764 17.836 35.827 15.4469 35.8452 12.4928C35.8634 9.50391 33.4481 7.081 30.4357 7.06414ZM30.3929 16.4744C28.1274 16.4797 26.3007 14.6912 26.2943 12.4601C26.2868 10.2332 28.106 8.42051 30.3597 8.40786C32.6348 8.39627 34.4797 10.2058 34.4797 12.4475C34.4787 14.6765 32.6605 16.4691 30.3929 16.4744Z" fill="#2A263E" stroke="#2A263E" stroke-width="0.5"/>
<path d="M41.9307 29.1628C41.9039 29.0184 41.8911 28.8762 42.0002 28.7539C42.0002 28.8856 42.0002 29.0163 42.0002 29.1481C41.9788 29.1597 41.9553 29.1639 41.9307 29.1628Z" fill="#434343" stroke="#2A263E" stroke-width="0.5"/>
<path d="M8.52539 13.7918C8.52432 13.3839 8.80898 13.1278 9.29161 13.1257C10.8519 13.1215 12.4121 13.1247 13.9734 13.1247C15.4802 13.1247 16.9869 13.1236 18.4937 13.1247C18.6146 13.1247 18.7355 13.1173 18.8532 13.1341C19.1828 13.1795 19.3862 13.366 19.4311 13.6927C19.4771 14.0321 19.3369 14.2839 19.0073 14.4083C18.8982 14.4494 18.7741 14.4673 18.6574 14.4673C15.5358 14.4705 12.4153 14.4715 9.29482 14.4673C8.82289 14.4663 8.52646 14.1912 8.52539 13.7918Z" fill="#FEFEFE" stroke="#2A263E" stroke-width="0.5"/>
<path d="M8.52655 11.0602C8.54474 10.7145 8.79515 10.4584 9.17398 10.4415C9.59989 10.4226 10.0269 10.4321 10.4539 10.4321H13.9746C15.5348 10.4321 17.0951 10.4289 18.6554 10.4342C19.1251 10.4352 19.3863 10.6365 19.4333 11.0022C19.4804 11.3605 19.2878 11.6514 18.9304 11.7421C18.8159 11.7705 18.6939 11.7779 18.5751 11.7779C15.5209 11.78 12.4678 11.78 9.41369 11.7789C9.30774 11.7789 9.19859 11.7779 9.09586 11.7579C8.72987 11.6873 8.50729 11.409 8.52655 11.0602Z" fill="#FEFEFE" stroke="#2A263E" stroke-width="0.5"/>
<path d="M8.63365 16.1169C8.7749 15.9019 8.98679 15.8145 9.24683 15.8145C12.408 15.8166 15.5692 15.8134 18.7303 15.8187C19.1723 15.8187 19.4484 16.1011 19.4409 16.4984C19.4324 16.8894 19.1498 17.155 18.7004 17.1571C17.1262 17.1634 15.5521 17.1592 13.9779 17.1592C12.4176 17.1592 10.8574 17.1582 9.29713 17.1603C8.99214 17.1603 8.74922 17.0623 8.60154 16.7893C8.47634 16.5596 8.49453 16.3309 8.63365 16.1169Z" fill="#FEFEFE" stroke="#2A263E" stroke-width="0.5"/>
<path d="M9.07573 22.5333C9.53374 22.3436 9.96287 22.1075 10.3053 21.7481C10.6103 21.4299 10.7291 21.0304 10.7548 20.5983C10.7804 20.1589 10.9699 19.9165 11.3219 19.8543C11.6558 19.7963 11.9501 19.9786 12.1085 20.3802C12.3332 20.9514 12.6992 21.4035 13.2193 21.7313C13.6281 21.9884 13.7736 21.9252 13.8528 21.4625C13.9074 21.1453 14.069 20.9261 14.3986 20.866C14.7431 20.8028 15.0128 20.9377 15.153 21.2465C15.305 21.5848 15.5832 21.7302 15.9149 21.8187C17.0471 22.118 18.1815 22.3984 19.3704 22.372C19.8284 22.3626 20.1377 22.6598 20.1323 23.0518C20.127 23.4291 19.8241 23.7042 19.3854 23.7084C17.8369 23.72 16.3473 23.4217 14.909 22.8642C14.8148 22.8273 14.7442 22.7641 14.6276 22.8516C13.8314 23.4481 13.0598 23.2721 12.3139 22.7504C12.0978 22.5997 11.9019 22.4195 11.6612 22.2234C11.1561 22.9728 10.4273 23.4396 9.60437 23.7779C9.12067 23.9771 8.7183 23.8433 8.56527 23.4523C8.4176 23.0739 8.60273 22.7304 9.07573 22.5333Z" fill="#FEFEFE" stroke="#2A263E" stroke-width="0.5"/>
<path d="M22.1769 25.9161C22.1694 26.3145 21.8783 26.5706 21.3935 26.5706C17.097 26.5737 12.8004 26.5906 8.50379 26.5622C6.53046 26.5495 5.10719 25.0783 5.09756 23.1275C5.08686 20.9059 5.09435 18.6853 5.09435 16.4647C5.09435 14.3085 5.09328 12.1532 5.09542 9.99801C5.09649 7.81855 6.53689 6.38735 8.74029 6.38525C12.6773 6.38103 16.6133 6.38314 20.5503 6.38525C20.6958 6.38525 20.8467 6.38841 20.9858 6.42319C21.3283 6.50855 21.5059 6.74673 21.492 7.08609C21.4792 7.42439 21.2876 7.65203 20.9377 7.71C20.7814 7.73635 20.6188 7.73213 20.4593 7.73213C16.5897 7.73318 12.7201 7.73213 8.84944 7.73318C7.25601 7.73318 6.46091 8.51307 6.46091 10.076C6.46091 14.3464 6.48552 18.6179 6.44592 22.8893C6.43308 24.233 7.3031 25.2627 8.84944 25.2427C12.932 25.1921 17.0156 25.2258 21.0993 25.2258C21.1924 25.2258 21.2865 25.2237 21.3796 25.2258C21.8804 25.2406 22.1844 25.5051 22.1769 25.9161Z" fill="#FEFEFE" stroke="#2A263E" stroke-width="0.5"/>
<path d="M30.4348 7.06454C27.3839 7.04768 24.9311 9.43687 24.9258 12.4331C24.9204 15.4114 27.3496 17.8154 30.376 17.8259C33.3756 17.8364 35.8262 15.4473 35.8444 12.4932C35.8626 9.50432 33.4473 7.0814 30.4348 7.06454ZM30.392 16.4748C28.1266 16.4801 26.2998 14.6916 26.2934 12.4605C26.2859 10.2336 28.1052 8.42091 30.3589 8.40826C32.634 8.39667 34.4789 10.2062 34.4789 12.4479C34.4778 14.6769 32.6596 16.4695 30.392 16.4748Z" fill="#FEFEFE" stroke="#2A263E" stroke-width="0.5"/>
<path d="M22.1769 25.9161C22.1694 26.3145 21.8783 26.5706 21.3935 26.5706C17.097 26.5737 12.8004 26.5906 8.50379 26.5622C6.53046 26.5495 5.10719 25.0783 5.09756 23.1275C5.08686 20.9059 5.09435 18.6853 5.09435 16.4647C5.09435 14.3085 5.09328 12.1532 5.09542 9.99801C5.09649 7.81855 6.53689 6.38735 8.74029 6.38525C12.6773 6.38103 16.6133 6.38314 20.5503 6.38525C20.6958 6.38525 20.8467 6.38841 20.9858 6.42319C21.3283 6.50855 21.5059 6.74673 21.492 7.08609C21.4792 7.42439 21.2876 7.65203 20.9377 7.71C20.7814 7.73635 20.6188 7.73213 20.4593 7.73213C16.5897 7.73318 12.7201 7.73213 8.84944 7.73318C7.25601 7.73318 6.46091 8.51307 6.46091 10.076C6.46091 14.3464 6.48552 18.6179 6.44592 22.8893C6.43308 24.233 7.3031 25.2627 8.84944 25.2427C12.932 25.1921 17.0156 25.2258 21.0993 25.2258C21.1924 25.2258 21.2865 25.2237 21.3796 25.2258C21.8804 25.2406 22.1844 25.5051 22.1769 25.9161Z" fill="#2A263E" stroke="#2A263E" stroke-width="0.5"/>
<path d="M20.1323 23.0518C20.127 23.4291 19.8241 23.7042 19.3854 23.7084C17.8369 23.72 16.3473 23.4217 14.909 22.8642C14.8148 22.8273 14.7442 22.7641 14.6276 22.8516C13.8314 23.4481 13.0598 23.2721 12.3139 22.7504C12.0978 22.5997 11.9019 22.4195 11.6612 22.2234C11.1561 22.9728 10.4273 23.4396 9.60437 23.7779C9.12067 23.9771 8.7183 23.8433 8.56527 23.4523C8.4176 23.0739 8.60273 22.7304 9.07573 22.5333C9.53374 22.3436 9.96287 22.1075 10.3053 21.7481C10.6103 21.4299 10.7291 21.0304 10.7548 20.5983C10.7804 20.1589 10.9699 19.9165 11.3219 19.8543C11.6558 19.7963 11.9501 19.9786 12.1085 20.3802C12.3332 20.9514 12.6992 21.4035 13.2193 21.7313C13.6281 21.9884 13.7736 21.9252 13.8528 21.4625C13.9074 21.1453 14.069 20.9261 14.3986 20.866C14.7431 20.8028 15.0128 20.9377 15.153 21.2465C15.305 21.5848 15.5832 21.7302 15.9149 21.8187C17.0471 22.118 18.1815 22.3984 19.3704 22.372C19.8284 22.3626 20.1377 22.6598 20.1323 23.0518Z" fill="#2A263E" stroke="#2A263E" stroke-width="0.5"/>
<path d="M19.4409 16.4984C19.4324 16.8894 19.1498 17.155 18.7004 17.1571C17.1262 17.1634 15.5521 17.1592 13.9779 17.1592C12.4176 17.1592 10.8574 17.1582 9.29713 17.1603C8.99214 17.1603 8.74922 17.0623 8.60154 16.7893C8.47634 16.5596 8.49453 16.3309 8.63365 16.1169C8.7749 15.9019 8.98679 15.8145 9.24683 15.8145C12.408 15.8166 15.5692 15.8134 18.7303 15.8187C19.1723 15.8187 19.4484 16.1011 19.4409 16.4984Z" fill="#2A263E" stroke="#2A263E" stroke-width="0.5"/>
<path d="M19.0073 14.4083C18.8982 14.4494 18.7741 14.4673 18.6574 14.4673C15.5358 14.4705 12.4153 14.4715 9.29482 14.4673C8.82289 14.4663 8.52646 14.1912 8.52539 13.7918C8.52432 13.3839 8.80898 13.1278 9.29161 13.1257C10.8519 13.1215 12.4121 13.1247 13.9734 13.1247C15.4802 13.1247 16.9869 13.1236 18.4937 13.1247C18.6146 13.1247 18.7355 13.1173 18.8532 13.1341C19.1828 13.1795 19.3862 13.366 19.4311 13.6927C19.4771 14.0321 19.3369 14.2839 19.0073 14.4083Z" fill="#2A263E" stroke="#2A263E" stroke-width="0.5"/>
<path d="M18.9304 11.7421C18.8159 11.7705 18.6939 11.7779 18.5751 11.7779C15.5209 11.78 12.4678 11.78 9.41369 11.7789C9.30774 11.7789 9.19859 11.7779 9.09586 11.7579C8.72987 11.6873 8.50729 11.409 8.52655 11.0602C8.54474 10.7145 8.79515 10.4584 9.17398 10.4415C9.59989 10.4226 10.0269 10.4321 10.4539 10.4321H13.9746C15.5348 10.4321 17.0951 10.4289 18.6554 10.4342C19.1251 10.4352 19.3863 10.6365 19.4333 11.0022C19.4804 11.3605 19.2878 11.6514 18.9304 11.7421Z" fill="#2A263E" stroke="#2A263E" stroke-width="0.5"/>
<path d="M30.4348 7.06454C27.3839 7.04768 24.9311 9.43687 24.9258 12.4331C24.9204 15.4114 27.3496 17.8154 30.376 17.8259C33.3756 17.8364 35.8262 15.4473 35.8444 12.4932C35.8626 9.50432 33.4473 7.0814 30.4348 7.06454ZM30.392 16.4748C28.1266 16.4801 26.2998 14.6916 26.2934 12.4605C26.2859 10.2336 28.1052 8.42091 30.3589 8.40826C32.634 8.39667 34.4789 10.2062 34.4789 12.4479C34.4778 14.6769 32.6596 16.4695 30.392 16.4748Z" fill="#2A263E" stroke="#2A263E" stroke-width="0.5"/>
</svg>
