<svg width="43" height="37" viewBox="0 0 43 37" fill="none" xmlns="http://www.w3.org/2000/svg">
<path d="M22.3 35.2067C22.2915 35.6477 21.9094 36.0059 21.4674 35.9868C21.0404 35.9687 20.6958 35.6052 20.7032 35.1801C20.7097 34.7401 21.0917 34.382 21.5348 34.4011C21.9618 34.4192 22.3075 34.7827 22.3 35.2067Z" fill="#FEFEFE" stroke="#2A263E" stroke-width="0.5"/>
<path d="M42 30.5627C41.9808 33.4216 39.5213 35.9456 36.6274 35.9775C32.8098 36.019 28.9933 35.9913 25.1758 35.9881C24.6599 35.9881 24.3099 35.6565 24.3067 35.1996C24.3035 34.7277 24.6599 34.4014 25.2068 34.4014C28.9163 34.3993 32.6268 34.4057 36.3374 34.3982C38.2552 34.394 39.8424 33.1612 40.2855 31.3566C40.2941 31.3194 40.293 31.2801 40.2973 31.2301H2.69527C2.89112 32.1803 3.37273 32.9391 4.11869 33.5321C4.87536 34.1325 5.74868 34.4025 6.71725 34.4014C10.3475 34.3972 13.9778 34.4004 17.607 34.4004C17.7408 34.4004 17.8767 34.3919 18.0073 34.411C18.4097 34.4673 18.704 34.8159 18.6965 35.2113C18.6879 35.5917 18.4011 35.9212 18.0148 35.9786C17.8831 35.9988 17.7483 35.9903 17.6145 35.9903C14.0249 35.9903 10.4342 35.9913 6.84354 35.9903C3.8597 35.9903 1.70208 34.2495 1.0792 31.3417C1.0685 31.2886 1.05993 31.2397 1 31.2195C1.2301 31.2588 1.2194 31.4618 1.25793 31.617C1.91506 34.2038 4.05662 35.867 6.74401 35.868C10.294 35.868 13.844 35.868 17.394 35.867C17.607 35.867 17.8221 35.8829 18.0308 35.8277C18.3455 35.7437 18.5413 35.4993 18.5435 35.1964C18.5445 34.8956 18.3508 34.6512 18.034 34.5651C17.8253 34.5077 17.6102 34.5236 17.3962 34.5236C13.8066 34.5226 10.217 34.5279 6.62628 34.5205C4.85074 34.5173 3.26785 33.3992 2.73273 31.7945C2.53473 31.2014 2.60644 31.0994 3.25287 31.0984C4.84004 31.0941 6.42828 31.0962 8.01653 31.0962H39.4058C39.592 31.0962 39.7793 31.0877 39.9655 31.1047C40.3529 31.1377 40.4353 31.2461 40.323 31.6223C39.9623 32.8275 39.1778 33.6724 38.0305 34.1761C37.4654 34.4237 36.8639 34.529 36.2378 34.5268C32.6878 34.5183 29.1378 34.5226 25.5878 34.5236C25.3877 34.5236 25.1865 34.5109 24.9895 34.5587C24.6674 34.6384 24.4673 34.8712 24.4587 35.173C24.4491 35.4876 24.6567 35.7458 24.9885 35.8298C25.1458 35.8702 25.3063 35.867 25.4669 35.867C29.1367 35.868 32.8066 35.8797 36.4765 35.8638C39.2912 35.851 41.6971 33.565 41.8695 30.7721C41.9144 30.0547 41.6501 29.7625 40.933 29.754C40.2384 29.7444 39.5449 29.7593 38.8503 29.7476C38.3805 29.7401 38.2959 29.6498 38.2777 29.1833C38.2713 29.0249 38.2756 28.8655 38.2756 28.7071C38.2756 22.3061 38.2756 15.9051 38.2745 9.50405C38.2745 8.43598 38.1193 8.28081 37.0533 8.28081C35.5315 8.27975 34.0106 8.28294 32.4888 8.27869C31.8702 8.27762 31.792 8.20217 31.7899 7.59533C31.7856 5.80564 31.7899 4.017 31.7877 2.22731C31.7867 1.85747 31.8209 1.46318 31.4271 1.24C31.0065 1.00301 30.6875 1.27295 30.3675 1.48444C28.6894 2.59184 27.0123 3.70136 25.3342 4.80983C25.149 4.93204 24.9489 5.15204 24.7295 5.03938C24.5079 4.9246 24.5861 4.63447 24.5839 4.41554C24.5764 3.63335 24.5871 2.85221 24.5786 2.07002C24.5722 1.36966 24.3399 1.12735 23.6421 1.12629C19.8117 1.11991 15.9813 1.11991 12.152 1.12629C11.4563 1.12735 11.2198 1.36966 11.2176 2.07215C11.2091 3.84802 11.2155 5.6239 11.2144 7.39978C11.2144 7.55813 11.2144 7.71755 11.2026 7.8759C11.1845 8.13203 11.0464 8.25637 10.7927 8.27125C10.6461 8.27869 10.4995 8.27975 10.3529 8.27975C8.83098 8.28081 7.3091 8.27869 5.78828 8.28081C4.93957 8.28188 4.72873 8.49124 4.72873 9.3457C4.72659 15.8392 4.72766 22.3337 4.72766 28.8272C4.72766 29.7508 4.72766 29.7508 3.79227 29.7518C3.25822 29.7518 2.72417 29.7582 2.19118 29.7486C1.80268 29.7423 1.44415 29.7922 1.1798 30.1153C1.13699 30.1684 1.07385 30.1961 1 30.1854C1.23224 29.7518 1.59185 29.5999 2.08416 29.6211C2.80336 29.6509 3.52578 29.6115 4.24605 29.6371C4.55107 29.6477 4.61208 29.5595 4.61101 29.2672C4.60245 22.7078 4.60459 16.1474 4.60459 9.58695C4.60459 9.42754 4.60352 9.26812 4.60459 9.10977C4.60994 8.45192 4.89676 8.15966 5.55282 8.1586C7.26093 8.15541 8.97012 8.14372 10.6782 8.16816C11.0485 8.17347 11.101 8.06082 11.0988 7.73136C11.0828 5.82264 11.0903 3.91392 11.0913 2.00625C11.0913 1.27401 11.3664 1.00088 12.1059 1.00088C15.9631 0.999817 19.8203 0.999817 23.6774 1.00088C24.4416 1.00088 24.7038 1.26551 24.7049 2.03389V5.01813C24.8665 5.02557 24.9532 4.91291 25.057 4.8449C26.855 3.65779 28.6519 2.47175 30.4446 1.27826C30.7689 1.06252 31.0878 0.883976 31.4784 1.09334C31.8627 1.29845 31.9172 1.64704 31.9162 2.04133C31.9076 3.95005 31.9226 5.85877 31.9023 7.76644C31.899 8.11077 32.0007 8.16816 32.3207 8.16497C34.0149 8.14903 35.7102 8.15647 37.4055 8.15753C38.1225 8.1586 38.3976 8.43279 38.3986 9.14484C38.3986 15.8254 38.4019 22.5048 38.3912 29.1843C38.3901 29.5308 38.4554 29.6562 38.8342 29.6392C39.5791 29.6041 40.3283 29.6254 41.0753 29.6296C41.7036 29.6328 42.0043 29.941 42 30.5627Z" fill="#FEFEFE" stroke="#2A263E" stroke-width="0.5"/>
<path d="M41.0753 29.6296C40.3283 29.6254 39.5791 29.6041 38.8342 29.6392C38.4554 29.6562 38.3901 29.5308 38.3912 29.1843C38.4019 22.5048 38.3986 15.8254 38.3986 9.14484C38.3976 8.43279 38.1225 8.1586 37.4055 8.15753C35.7102 8.15647 34.0149 8.14903 32.3207 8.16497C32.0007 8.16816 31.899 8.11077 31.9023 7.76644C31.9226 5.85877 31.9076 3.95005 31.9162 2.04133C31.9172 1.64704 31.8627 1.29845 31.4784 1.09334C31.0878 0.883976 30.7689 1.06252 30.4446 1.27826C28.6519 2.47175 26.855 3.65779 25.057 4.8449C24.9532 4.91291 24.8665 5.02557 24.7049 5.01813V2.03389C24.7038 1.26551 24.4416 1.00088 23.6774 1.00088C19.8203 0.999817 15.9631 0.999817 12.1059 1.00088C11.3664 1.00088 11.0913 1.27401 11.0913 2.00625C11.0903 3.91392 11.0828 5.82264 11.0988 7.73136C11.101 8.06082 11.0485 8.17347 10.6782 8.16816C8.97012 8.14372 7.26093 8.15541 5.55282 8.1586C4.89676 8.15966 4.60994 8.45192 4.60459 9.10977C4.60352 9.26812 4.60459 9.42754 4.60459 9.58695C4.60459 16.1474 4.60245 22.7078 4.61101 29.2672C4.61208 29.5595 4.55107 29.6477 4.24605 29.6371C3.52578 29.6115 2.80336 29.6509 2.08416 29.6211C1.59185 29.5999 1.23224 29.7518 1 30.1854V31.2195C1.05993 31.2397 1.0685 31.2886 1.0792 31.3417C1.70208 34.2495 3.8597 35.9903 6.84354 35.9903C10.4342 35.9913 14.0249 35.9903 17.6145 35.9903C17.7483 35.9903 17.8831 35.9988 18.0148 35.9786C18.4011 35.9212 18.6879 35.5917 18.6965 35.2113C18.704 34.8159 18.4097 34.4673 18.0073 34.411C17.8767 34.3919 17.7408 34.4004 17.607 34.4004C13.9778 34.4004 10.3475 34.3972 6.71725 34.4014C5.74868 34.4025 4.87536 34.1325 4.11869 33.5321C3.37273 32.9391 2.89112 32.1803 2.69527 31.2301H40.2973C40.293 31.2801 40.2941 31.3194 40.2855 31.3566C39.8424 33.1612 38.2552 34.394 36.3374 34.3982C32.6268 34.4057 28.9163 34.3993 25.2068 34.4014C24.6599 34.4014 24.3035 34.7277 24.3067 35.1996C24.3099 35.6565 24.6599 35.9881 25.1758 35.9881C28.9933 35.9913 32.8098 36.019 36.6274 35.9775C39.5213 35.9456 41.9808 33.4216 42 30.5627C42.0043 29.941 41.7036 29.6328 41.0753 29.6296ZM6.20139 29.3416C6.21102 28.2013 6.20567 27.062 6.20567 25.9216C6.20567 20.6737 6.21102 15.4258 6.19604 10.1778C6.19497 9.79844 6.31056 9.73467 6.65518 9.73999C7.98977 9.75912 9.32544 9.76549 10.659 9.7368C11.0432 9.72936 11.1267 9.8537 11.0967 10.1959C11.0689 10.5243 11.0892 10.858 11.0913 11.1896C11.0956 11.8411 11.3867 12.1323 12.0481 12.1333C15.5575 12.1344 19.0679 12.1333 22.5783 12.1333C22.9786 12.1333 23.3788 12.1365 23.7791 12.1333C24.4052 12.127 24.7017 11.8294 24.7038 11.1981C24.707 10.1704 24.7049 9.14165 24.7049 8.05551C25.4508 8.54757 26.1454 9.00562 26.84 9.46473C28.059 10.2714 29.2802 11.0759 30.496 11.89C30.8138 12.1036 31.1338 12.2364 31.4977 12.0313C31.8402 11.8379 31.9397 11.5201 31.913 11.1503C31.9087 11.0971 31.9097 11.044 31.9119 10.9909C31.9344 10.5849 31.7364 10.028 31.9879 9.81544C32.2298 9.61033 32.7724 9.75062 33.1833 9.74955C34.2514 9.7453 35.3196 9.76124 36.3866 9.73999C36.7045 9.73361 36.8072 9.78994 36.8061 10.1375C36.7933 16.5119 36.7954 22.8864 36.8029 29.2608C36.8029 29.5393 36.7633 29.6392 36.4454 29.6371C33.4563 29.6222 30.466 29.6222 27.4768 29.6381C27.1397 29.6392 27.1033 29.5244 27.1001 29.2396C27.0883 28.2735 27.1696 27.3053 27.0316 26.3414C26.6944 23.9895 24.4887 21.8714 22.2379 21.7482C22.2272 21.7312 22.2112 21.7227 22.1909 21.7195C22.1309 21.6833 22.0699 21.6461 22.0111 21.6089C23.2814 21.4187 24.1216 20.6822 24.524 19.5079C24.966 18.2219 24.6374 17.0741 23.6453 16.1431C22.6778 15.2377 21.2255 15.0623 20.0407 15.666C18.8784 16.2579 18.1721 17.5428 18.3101 18.8149C18.4536 20.1391 19.4264 21.2582 20.7139 21.5781C20.8038 21.6004 20.898 21.5994 20.9911 21.6089C20.9301 21.6461 20.8712 21.6833 20.8113 21.7195C20.792 21.7237 20.776 21.7312 20.7653 21.7482C18.8774 21.8512 16.921 23.4156 16.2167 25.3817C15.9492 26.1289 15.8743 26.9004 15.8935 27.6879C15.9064 28.231 15.886 28.7752 15.9 29.3182C15.9064 29.5425 15.8753 29.6371 15.6067 29.636C12.564 29.6243 9.52129 29.6254 6.47752 29.6339C6.23778 29.6349 6.19925 29.5531 6.20139 29.3416ZM12.686 2.9096C12.6849 2.64923 12.7524 2.5844 13.0135 2.5844C16.2703 2.59396 19.5259 2.59396 22.7827 2.5844C23.0438 2.5844 23.1102 2.65029 23.1091 2.9096C23.0984 5.34758 23.0984 7.78663 23.1091 10.2246C23.1102 10.485 23.0428 10.5519 22.7816 10.5498C21.1538 10.5371 19.5259 10.5434 17.8981 10.5434C16.2692 10.5434 14.6413 10.5371 13.0135 10.5498C12.7513 10.5519 12.6849 10.4839 12.686 10.2246C12.6967 7.78663 12.6967 5.34758 12.686 2.9096ZM25.5182 6.45817C27.099 5.41241 28.6787 4.36559 30.2937 3.29539V9.8367C29.3454 9.20967 28.4293 8.60496 27.5143 7.99918C26.8721 7.57408 26.2278 7.15109 25.5889 6.71961C25.5065 6.66435 25.2753 6.61865 25.5182 6.45817ZM25.5086 29.4319C25.5193 29.6806 25.3588 29.6275 25.2218 29.6275C23.9814 29.6296 22.741 29.6286 21.5005 29.6286C20.274 29.6286 19.0465 29.6211 17.82 29.6349C17.562 29.6381 17.4786 29.5754 17.4914 29.3118C17.5385 28.3872 17.4176 27.4573 17.5706 26.537C17.8799 24.6654 19.5837 23.2605 21.522 23.2679C23.4409 23.2753 25.1287 24.6814 25.4316 26.538C25.5889 27.4988 25.4669 28.468 25.5086 29.4319ZM21.5059 20.0849C20.6251 20.0871 19.9027 19.3739 19.9005 18.4993C19.8984 17.6236 20.6155 16.9083 21.4963 16.9062C22.3781 16.9041 23.0995 17.6161 23.1016 18.4908C23.1038 19.3644 22.3856 20.0828 21.5059 20.0849Z" fill="#2A263E" stroke="#2A263E" stroke-width="0.5"/>
<path d="M22.3 35.2067C22.2915 35.6477 21.9094 36.0059 21.4674 35.9868C21.0404 35.9687 20.6958 35.6052 20.7032 35.1801C20.7097 34.7401 21.0917 34.382 21.5348 34.4011C21.9618 34.4192 22.3075 34.7827 22.3 35.2067Z" fill="#2A263E" stroke="#2A263E" stroke-width="0.5"/>
<path d="M20.8105 21.7199C20.8705 21.6838 20.9293 21.6466 20.9903 21.6094C20.9989 21.7571 20.8833 21.7061 20.8105 21.7199Z" fill="#FEFEFE" stroke="#2A263E" stroke-width="0.5"/>
<path d="M22.1901 21.7199C22.1163 21.705 22.0007 21.7571 22.0103 21.6094C22.0692 21.6466 22.1302 21.6838 22.1901 21.7199Z" fill="#FEFEFE" stroke="#2A263E" stroke-width="0.5"/>
<path d="M21.3832 21.6685C21.1755 21.8077 20.9668 21.7556 20.7656 21.7471C20.7806 21.7375 20.7967 21.728 20.8116 21.7184C20.8716 21.6823 20.9304 21.6451 20.9914 21.6079C21.1145 21.5983 21.243 21.5494 21.3832 21.6685Z" fill="#2A263E" stroke="#2A263E" stroke-width="0.5"/>
<path d="M22.2386 21.747C22.0363 21.7565 21.8287 21.8076 21.6211 21.6694C21.7602 21.5493 21.8886 21.5982 22.0117 21.6078C22.0706 21.645 22.1316 21.6822 22.1915 21.7183C22.2076 21.7279 22.2226 21.7374 22.2386 21.747Z" fill="#2A263E" stroke="#2A263E" stroke-width="0.5"/>
</svg>
