<svg width="34" height="40" viewBox="0 0 34 40" fill="none" xmlns="http://www.w3.org/2000/svg">
<path d="M9.89209 3.47985C9.62488 2.99408 9.65367 2.5032 9.93564 2.02399C10.1534 1.65273 10.5151 1.48424 10.893 1.33398C10.8834 1.51414 10.7151 1.51341 10.6059 1.57177C10.0205 1.88321 9.73413 2.44557 9.85888 3.05461C9.98584 3.67241 10.4597 4.07649 11.127 4.13484C11.2739 4.14797 11.4216 4.14432 11.5692 4.14432H22.4776C22.6002 4.14432 22.7235 4.14724 22.846 4.13922C23.4594 4.09983 23.9672 3.69648 24.1082 3.13704C24.2581 2.54404 24.0093 1.95542 23.4815 1.62647C23.3561 1.5477 23.1649 1.53457 23.1442 1.33398C23.1811 1.43683 23.2881 1.41057 23.3605 1.44266C24.0352 1.74025 24.3909 2.40692 24.2418 3.11005C24.1038 3.75848 23.5081 4.24279 22.8039 4.2479C21.5623 4.25738 20.32 4.25081 19.0777 4.25081C16.458 4.25081 13.839 4.25227 11.2193 4.24936C10.6288 4.24863 10.1741 3.99188 9.89209 3.47985Z" fill="#2A263E" stroke="white" stroke-width="0.5"/>
<path d="M20.7066 38.2355C19.9397 38.4105 19.1675 38.5484 18.3807 38.5972C18.329 38.6009 18.2862 38.6104 18.2729 38.668C18.3113 38.4587 18.4899 38.5134 18.6198 38.4988C20.5819 38.2792 22.4686 37.7825 24.2106 36.8606C29.0197 34.315 31.9007 30.3843 32.7157 25.0386C33.1999 21.8629 32.6788 18.8126 31.26 15.9285C30.5197 14.4238 29.5453 13.0664 28.334 11.8848C28.2461 11.7995 28.1568 11.7156 28.0741 11.6259C27.818 11.3465 27.8136 11.2196 28.0837 10.9439C28.5709 10.4457 29.0802 9.96944 29.566 9.4698C30.2679 8.74698 30.048 7.64706 29.1157 7.28236C28.5658 7.06646 28.049 7.17514 27.6187 7.59017C27.0385 8.15034 26.4716 8.72437 25.8944 9.28819C25.5651 9.60912 25.529 9.60474 25.1378 9.37717C23.1049 8.19775 20.9258 7.46836 18.5689 7.25465C15.8709 7.01103 13.2697 7.36843 10.7754 8.41656C9.2268 9.06791 7.81987 9.94609 6.5436 11.0402C4.93146 12.4224 3.66184 14.0606 2.72733 15.9475C1.84376 17.7316 1.32852 19.6171 1.16096 21.6061C0.918847 24.4909 1.47394 27.2188 2.73176 29.8103C3.39315 31.1742 4.27893 32.3967 5.32195 33.5141C7.19908 35.5236 9.45489 36.9372 12.0717 37.7986C13.0305 38.1137 14.0137 38.3288 15.0198 38.4441C15.2014 38.4652 15.4531 38.4047 15.5425 38.668C15.0649 38.4762 14.5474 38.4937 14.0506 38.3967C9.63795 37.5323 6.16566 35.2603 3.66184 31.5798C1.73082 28.7417 0.799266 25.5733 1.03621 22.1699C1.49756 15.5639 4.83034 10.8112 11.0131 8.25391C15.8909 6.23642 20.7177 6.72438 25.2942 9.36915C25.5017 9.48877 25.5998 9.44719 25.7467 9.2984C26.3218 8.71561 26.9064 8.14159 27.4925 7.56901C28.1354 6.94028 29.0337 6.90819 29.6324 7.48586C30.248 8.08032 30.231 8.97017 29.5815 9.62589C29.1002 10.1124 28.6189 10.5996 28.117 11.065C27.9147 11.2524 27.9191 11.3465 28.1192 11.5384C30.5329 13.8542 32.0528 16.6499 32.7053 19.9125C34.3477 28.1159 28.954 36.3558 20.7066 38.2355Z" fill="#2A263E" stroke="white" stroke-width="0.5"/>
<path d="M18.4765 21.175C18.4765 21.7454 18.4928 22.3165 18.4699 22.8869C18.4404 23.6331 17.917 24.2129 17.2298 24.3041C16.4791 24.404 15.8236 24.0014 15.5896 23.307C15.5217 23.105 15.5261 22.9008 15.5254 22.6951C15.5239 21.3231 15.5246 19.9511 15.5246 18.5784C15.5254 18.5784 15.5261 18.5784 15.5261 18.5784C15.5261 17.1335 15.5128 15.6886 15.5313 14.2436C15.5431 13.2677 16.4363 12.6156 17.3811 12.8571C18.0543 13.0292 18.4743 13.6113 18.4758 14.399C18.4787 16.6572 18.4765 18.9161 18.4765 21.175Z" fill="#2A263E" stroke="white" stroke-width="0.5"/>
<path d="M32.7053 19.9125C32.0528 16.6499 30.5329 13.8542 28.1192 11.5384C27.9191 11.3465 27.9147 11.2524 28.117 11.065C28.6189 10.5996 29.1002 10.1124 29.5815 9.62589C30.231 8.97017 30.248 8.08032 29.6324 7.48586C29.0337 6.90819 28.1354 6.94028 27.4925 7.56901C26.9064 8.14159 26.3218 8.71561 25.7467 9.2984C25.5998 9.44719 25.5017 9.48877 25.2942 9.36915C20.7177 6.72438 15.8909 6.23642 11.0131 8.25391C4.83034 10.8112 1.49756 15.5639 1.03621 22.1699C0.799266 25.5733 1.73082 28.7417 3.66184 31.5798C6.16566 35.2603 9.63795 37.5323 14.0506 38.3967C14.5474 38.4937 15.0649 38.4762 15.5425 38.668H15.9115C15.9854 38.6133 16.0592 38.6133 16.133 38.668H16.4282C16.5759 38.6089 16.7235 38.6089 16.8711 38.668H17.4609C17.5266 38.6053 17.61 38.6396 17.6853 38.6308C17.6861 38.6308 17.6861 38.6308 17.6868 38.6308H17.8758C17.8861 38.6315 17.8957 38.6315 17.906 38.6315C17.9142 38.6315 17.9223 38.6308 17.9304 38.6308C17.9739 38.6293 18.0168 38.6308 18.0515 38.668H18.2729C18.2862 38.6104 18.329 38.6009 18.3807 38.5972C19.1675 38.5484 19.9397 38.4105 20.7066 38.2355C28.954 36.3558 34.3477 28.1159 32.7053 19.9125ZM16.9014 35.7504C9.69036 35.687 3.88624 29.8541 3.9571 22.7425C4.02796 15.6718 9.92657 9.92713 17.0483 9.99423C24.28 10.0628 30.0878 15.8498 30.0236 22.9234C29.9594 30.0765 24.0896 35.8139 16.9014 35.7504Z" fill="#2A263E" stroke="white" stroke-width="0.5"/>
<path d="M24.2418 3.11005C24.1038 3.75848 23.5081 4.24279 22.8039 4.2479C21.5623 4.25738 20.32 4.25081 19.0777 4.25081C16.458 4.25081 13.839 4.25227 11.2193 4.24936C10.6288 4.24863 10.1741 3.99188 9.89209 3.47985C9.62488 2.99408 9.65367 2.5032 9.93564 2.02399C10.1534 1.65273 10.5151 1.48424 10.893 1.33398H23.1442C23.1811 1.43683 23.2881 1.41057 23.3605 1.44266C24.0352 1.74025 24.3909 2.40692 24.2418 3.11005Z" fill="#2A263E" stroke="white" stroke-width="0.5"/>
<path d="M16.4277 38.6664C16.5754 38.5504 16.723 38.5628 16.8706 38.6664C16.723 38.6664 16.5754 38.6664 16.4277 38.6664Z" fill="#2A263E" stroke="white" stroke-width="0.5"/>
<path d="M15.9121 38.6672C15.9859 38.5483 16.0597 38.5811 16.1336 38.6672C16.0597 38.6672 15.9859 38.6672 15.9121 38.6672Z" fill="#2A263E" stroke="white" stroke-width="0.5"/>
<path d="M17.4609 38.668C17.5156 38.5768 17.6034 38.5979 17.6868 38.6045C17.7082 38.6198 17.7141 38.6344 17.706 38.6483C17.6979 38.6614 17.6905 38.668 17.6824 38.668C17.6086 38.668 17.5348 38.668 17.4609 38.668Z" fill="#2A263E" stroke="white" stroke-width="0.5"/>
<path d="M17.6816 38.667C17.6824 38.6458 17.6831 38.6247 17.6861 38.6035C17.7599 38.6035 17.8344 38.6035 17.9082 38.6035C17.9289 38.6188 17.9348 38.6334 17.9267 38.6473C17.9186 38.6604 17.9112 38.667 17.9038 38.667C17.8293 38.667 17.7554 38.667 17.6816 38.667Z" fill="#2A263E" stroke="white" stroke-width="0.5"/>
<path d="M17.9045 38.6665C17.9037 38.6454 17.9052 38.6242 17.9096 38.6031C17.9694 38.5965 18.0337 38.5812 18.0521 38.6665C18.0034 38.6665 17.9539 38.6665 17.9045 38.6665Z" fill="#2A263E" stroke="white" stroke-width="0.5"/>
<path d="M18.4699 22.8869C18.4404 23.6331 17.917 24.2129 17.2298 24.3041C16.4791 24.404 15.8236 24.0014 15.5896 23.307C15.5217 23.105 15.5261 22.9008 15.5254 22.6951C15.5239 21.3231 15.5246 19.9511 15.5246 18.5784C15.5254 18.5784 15.5261 18.5784 15.5261 18.5784C15.5261 17.1335 15.5128 15.6886 15.5313 14.2436C15.5431 13.2677 16.4363 12.6156 17.3811 12.8571C18.0543 13.0292 18.4743 13.6113 18.4758 14.399C18.4787 16.6572 18.4765 18.9161 18.4765 21.175C18.4765 21.7454 18.4928 22.3165 18.4699 22.8869Z" fill="#2A263E" stroke="white" stroke-width="0.5"/>
<path d="M18.4699 22.8869C18.4404 23.6331 17.917 24.2129 17.2298 24.3041C16.4791 24.404 15.8236 24.0014 15.5896 23.307C15.5217 23.105 15.5261 22.9008 15.5254 22.6951C15.5239 21.3231 15.5246 19.9511 15.5246 18.5784C15.5254 18.5784 15.5261 18.5784 15.5261 18.5784C15.5261 17.1335 15.5128 15.6886 15.5313 14.2436C15.5431 13.2677 16.4363 12.6156 17.3811 12.8571C18.0543 13.0292 18.4743 13.6113 18.4758 14.399C18.4787 16.6572 18.4765 18.9161 18.4765 21.175C18.4765 21.7454 18.4928 22.3165 18.4699 22.8869Z" fill="#2A263E" stroke="white" stroke-width="0.5"/>
</svg>
