<svg width="32" height="35" viewBox="0 0 32 35" fill="none" xmlns="http://www.w3.org/2000/svg">
<path d="M31.053 23.6907C28.5077 22.4515 25.9617 21.214 23.4157 19.9765C22.7002 19.6287 22.2294 19.7257 21.676 20.3344L21.3015 20.7458C20.703 21.403 20.0854 22.082 19.4839 22.7601C16.3554 20.1856 13.5786 17.1486 11.2282 13.7337C11.8099 13.1125 12.3923 12.4753 12.9564 11.8582L13.4249 11.3465C14.002 10.716 14.0891 10.2035 13.7582 9.38654L13.5702 8.92247C13.1108 7.79031 12.6522 6.65899 12.1928 5.52766L12.0797 5.24922C11.5125 3.85367 10.9454 2.45728 10.3767 1.06257C10.0496 0.260688 9.46869 -0.0871548 8.78231 0.107671C6.84087 0.660373 4.64033 1.28666 2.48794 1.93803C1.39875 2.2658 0.630583 3.0844 0.20408 4.36791C0.171977 4.46574 0.155162 4.55772 0.140639 4.63882C0.127645 4.7099 0.113123 4.79101 0.0955429 4.81358L0 4.93232V6.60715L0.0886638 6.65982C0.0924855 6.69411 0.0986003 6.73173 0.109301 6.77187C0.531983 8.35138 1.05097 9.9568 1.65175 11.5447C2.99088 15.0841 4.79243 18.3803 7.00597 21.3411C9.1255 24.1765 11.6883 26.7929 14.6249 29.1183C17.7817 31.6184 21.3473 33.4838 25.5252 34.8209C25.8998 34.9404 26.3011 35.0006 26.7161 35.0006C27.0593 35.0006 27.4116 34.9597 27.7655 34.8769C29.0282 34.5834 29.9172 33.6686 30.2688 32.3024C30.7633 30.38 31.2349 28.4184 31.692 26.522L31.9259 25.5504C32.133 24.6866 31.8479 24.0779 31.053 23.6907ZM8.78231 12.416C8.15402 13.1049 8.09975 13.7697 8.60651 14.5699C10.8881 18.1746 13.7918 21.4774 17.4828 24.6682C17.852 24.9876 18.2433 25.2769 18.6217 25.557L18.8227 25.7059C19.435 26.1616 20.0648 26.0955 20.5975 25.5211C21.4903 24.5587 22.2821 23.6949 23.0174 22.8805C25.1163 23.9132 27.2114 24.9299 29.1673 25.8765C28.9059 26.925 28.6476 27.9894 28.3969 29.0196C28.2073 29.7989 28.0178 30.579 27.8259 31.3575C27.686 31.9261 27.31 32.197 26.6733 32.1886C26.2995 32.1569 25.8753 31.9946 25.4259 31.8224C25.2547 31.7572 25.0773 31.6894 24.8977 31.6267C19.9616 29.9143 15.4474 26.8464 11.4812 22.5076C7.26356 17.8961 4.30555 12.4502 2.68896 6.32452C2.59189 5.95745 2.57431 5.67901 2.63087 5.42147C2.72641 4.98416 2.93126 4.73415 3.27445 4.63213C4.35599 4.31272 5.45741 3.99414 6.52214 3.68644C7.14279 3.50666 7.7642 3.32689 8.38714 3.14628C9.39225 5.63469 10.2453 7.74014 11.1143 9.86148C10.3362 10.7119 9.55964 11.5639 8.78231 12.416Z" fill="#FF8A49"/>
<path d="M15.8237 2.84629C15.9911 2.87054 16.1692 2.88308 16.3848 2.88642C17.2637 2.90064 18.1183 3.01603 18.9262 3.23009C23.1866 4.3589 26.3044 7.11739 28.1938 11.4295C28.9796 13.223 29.3862 15.2139 29.4015 17.3445C29.4053 17.9231 29.5995 18.3579 29.9771 18.638C30.2041 18.8061 30.4487 18.8905 30.6963 18.8905C30.8958 18.8905 31.0968 18.8353 31.2925 18.725C31.6204 18.5402 32.0094 18.153 32.0003 17.3587C31.9643 14.111 31.2031 11.1527 29.7386 8.56562C26.9464 3.63395 22.8503 0.791844 17.5649 0.117899C17.4625 0.10452 17.3669 0.103684 17.2744 0.102012C17.1262 0.099503 16.9978 0.0978307 16.906 0.0459888L16.8235 0H15.5768L15.5126 0.145492C15.4729 0.15887 15.424 0.178102 15.3735 0.209876C14.8958 0.507549 14.6268 1.1146 14.7192 1.68653C14.8178 2.29944 15.2619 2.76602 15.8237 2.84629Z" fill="#7155FF"/>
<path d="M26.1365 15.3754C26.1304 15.2993 26.125 15.2249 26.1197 15.1513C26.1075 14.9783 26.0952 14.8152 26.0776 14.648C26.0517 14.4005 26.0226 14.1998 25.9874 14.0175C25.4325 11.1319 23.9612 8.94118 21.6131 7.50716C20.41 6.77218 19.0533 6.39089 17.5797 6.375C17.5751 6.375 17.5697 6.375 17.5652 6.375C16.8436 6.375 16.2719 6.94777 16.2344 7.71286C16.197 8.45955 16.6854 9.08165 17.3947 9.19202C17.5728 9.21962 17.7455 9.22965 17.9129 9.23885C18.0987 9.24972 18.2745 9.25892 18.4426 9.29236C20.7028 9.7372 22.2391 11.0893 23.141 13.4263C23.4009 14.0995 23.5324 14.8578 23.5561 15.8127C23.5752 16.587 24.114 17.1874 24.8104 17.21C24.8234 17.21 24.8371 17.2108 24.8501 17.2108C25.5036 17.2108 26.0517 16.689 26.1327 15.9808C26.1503 15.827 26.1457 15.6806 26.1418 15.5519C26.1403 15.5042 26.1388 15.4582 26.1388 15.4139L26.1365 15.3754Z" fill="#7155FF"/>
</svg>
