<svg width="37" height="37" viewBox="0 0 37 37" fill="none" xmlns="http://www.w3.org/2000/svg">
<path d="M7.70768 13.875C8.11656 13.875 8.50869 14.0374 8.7978 14.3265C9.08692 14.6157 9.24935 15.0078 9.24935 15.4167C11.6715 15.4131 14.0239 16.228 15.9248 17.7292H19.2702C21.3252 17.7292 23.1706 18.6233 24.4409 20.0417H29.291C30.7483 20.0413 32.1758 20.454 33.4081 21.2319C34.6403 22.0098 35.6268 23.1211 36.2532 24.437C32.6071 29.2485 26.7041 32.375 20.041 32.375C15.7398 32.375 12.1014 31.4454 9.15685 29.8189C9.049 30.1165 8.85197 30.3737 8.59262 30.5552C8.33328 30.7368 8.02425 30.8339 7.70768 30.8333H3.08268C2.67381 30.8333 2.28168 30.6709 1.99256 30.3818C1.70344 30.0927 1.54102 29.7005 1.54102 29.2917V15.4167C1.54102 15.0078 1.70344 14.6157 1.99256 14.3265C2.28168 14.0374 2.67381 13.875 3.08268 13.875H7.70768ZM9.25089 18.5L9.24935 26.2422L9.31872 26.2916C12.086 28.2341 15.6904 29.2917 20.041 29.2917C24.6722 29.2917 28.9811 27.5095 32.12 24.4662L32.325 24.2612L32.14 24.107C31.412 23.5369 30.5296 23.1985 29.6071 23.1358L29.291 23.125H26.0366C26.1476 23.6214 26.2077 24.1363 26.2077 24.6667V26.2083H12.3327V23.125L22.8006 23.1235L22.7482 23.0032C22.4527 22.3858 21.9983 21.8582 21.4315 21.4746C20.8647 21.0909 20.206 20.8651 19.523 20.8202L19.2702 20.8125H14.7531C14.0367 20.0798 13.181 19.4977 12.2364 19.1006C11.2917 18.7035 10.2772 18.4993 9.25243 18.5H9.25089ZM6.16602 16.9583H4.62435V27.75H6.16602V16.9583Z" fill="#7155FF"/>
<path d="M30.4167 7.70898C31.6433 7.70898 32.8197 8.19626 33.687 9.06362C34.5544 9.93097 35.0417 11.1074 35.0417 12.334C35.0417 13.5606 34.5544 14.737 33.687 15.6044C32.8197 16.4717 31.6433 16.959 30.4167 16.959C29.19 16.959 28.0137 16.4717 27.1463 15.6044C26.2789 14.737 25.7917 13.5606 25.7917 12.334C25.7917 11.1074 26.2789 9.93097 27.1463 9.06362C28.0137 8.19626 29.19 7.70898 30.4167 7.70898ZM30.4167 10.7923C30.0078 10.7923 29.6157 10.9547 29.3265 11.2439C29.0374 11.533 28.875 11.9251 28.875 12.334C28.875 12.7429 29.0374 13.135 29.3265 13.4241C29.6157 13.7132 30.0078 13.8757 30.4167 13.8757C30.8255 13.8757 31.2177 13.7132 31.5068 13.4241C31.7959 13.135 31.9583 12.7429 31.9583 12.334C31.9583 11.9251 31.7959 11.533 31.5068 11.2439C31.2177 10.9547 30.8255 10.7923 30.4167 10.7923ZM19.625 3.08398C20.8516 3.08398 22.028 3.57126 22.8954 4.43862C23.7627 5.30597 24.25 6.48236 24.25 7.70898C24.25 8.93561 23.7627 10.112 22.8954 10.9794C22.028 11.8467 20.8516 12.334 19.625 12.334C18.3984 12.334 17.222 11.8467 16.3546 10.9794C15.4873 10.112 15 8.93561 15 7.70898C15 6.48236 15.4873 5.30597 16.3546 4.43862C17.222 3.57126 18.3984 3.08398 19.625 3.08398ZM19.625 6.16732C19.2161 6.16732 18.824 6.32974 18.5349 6.61886C18.2458 6.90798 18.0833 7.30011 18.0833 7.70898C18.0833 8.11786 18.2458 8.50999 18.5349 8.79911C18.824 9.08823 19.2161 9.25065 19.625 9.25065C20.0339 9.25065 20.426 9.08823 20.7151 8.79911C21.0042 8.50999 21.1667 8.11786 21.1667 7.70898C21.1667 7.30011 21.0042 6.90798 20.7151 6.61886C20.426 6.32974 20.0339 6.16732 19.625 6.16732Z" fill="#FF8A49"/>
</svg>
