<svg width="37" height="37" viewBox="0 0 37 37" fill="none" xmlns="http://www.w3.org/2000/svg">
<path d="M18.5007 1.54102C21.9077 1.54102 24.6673 4.3006 24.6673 7.70768C24.6673 11.1148 21.9077 13.8743 18.5007 13.8743C15.0936 13.8743 12.334 11.1148 12.334 7.70768C12.334 4.3006 15.0936 1.54102 18.5007 1.54102ZM18.5007 4.62435C16.7971 4.62435 15.4173 6.00414 15.4173 7.70768C15.4173 9.41122 16.7971 10.791 18.5007 10.791C20.2042 10.791 21.584 9.41122 21.584 7.70768C21.584 6.00414 20.2042 4.62435 18.5007 4.62435Z" fill="#FF8A49"/>
<path d="M28.4284 16.9267C30.8365 19.3333 30.8365 23.2383 28.4284 25.6464L19.7072 34.3676C19.1059 34.9689 18.1285 34.9689 17.5273 34.3676L8.80606 25.6464C6.39798 23.2383 6.39798 19.3333 8.80606 16.9252C11.2141 14.5171 15.1192 14.5171 17.5273 16.9252L18.6157 18.0152L19.7072 16.9252C22.1153 14.5171 26.0203 14.5171 28.4284 16.9252V16.9267ZM10.986 19.1036C9.78348 20.3076 9.78348 22.2609 10.986 23.465L18.6172 31.0962L26.2485 23.465C27.451 22.2609 27.451 20.3076 26.2485 19.1036C25.0444 17.9011 23.0911 17.9011 21.8856 19.1067L18.6141 22.3719L15.3458 19.1036C14.1433 17.9011 12.19 17.9011 10.986 19.1036Z" fill="#7155FF"/>
</svg>
