<svg width="37" height="37" viewBox="0 0 37 37" fill="none" xmlns="http://www.w3.org/2000/svg">
<path d="M20.5674 6.16602C20.2181 7.15642 20.0403 8.19916 20.0417 9.24935H7.70833V30.8327H29.2917V18.4993C30.3419 18.5007 31.3846 18.3229 32.375 17.9736V32.3743C32.375 32.7832 32.2126 33.1754 31.9235 33.4645C31.6343 33.7536 31.2422 33.916 30.8333 33.916H6.16667C5.75779 33.916 5.36566 33.7536 5.07654 33.4645C4.78743 33.1754 4.625 32.7832 4.625 32.3743V7.70768C4.625 7.29881 4.78743 6.90668 5.07654 6.61756C5.36566 6.32844 5.75779 6.16602 6.16667 6.16602H20.5674Z" fill="#7155FF"/>
<path d="M29.2917 12.334C30.1094 12.334 30.8937 12.0091 31.4719 11.4309C32.0502 10.8527 32.375 10.0684 32.375 9.25065C32.375 8.4329 32.0502 7.64864 31.4719 7.0704C30.8937 6.49217 30.1094 6.16732 29.2917 6.16732C28.4739 6.16732 27.6897 6.49217 27.1114 7.0704C26.5332 7.64864 26.2083 8.4329 26.2083 9.25065C26.2083 10.0684 26.5332 10.8527 27.1114 11.4309C27.6897 12.0091 28.4739 12.334 29.2917 12.334ZM29.2917 15.4173C27.6562 15.4173 26.0877 14.7676 24.9312 13.6111C23.7747 12.4547 23.125 10.8862 23.125 9.25065C23.125 7.61515 23.7747 6.04663 24.9312 4.89016C26.0877 3.73368 27.6562 3.08398 29.2917 3.08398C30.9272 3.08398 32.4957 3.73368 33.6522 4.89016C34.8086 6.04663 35.4583 7.61515 35.4583 9.25065C35.4583 10.8862 34.8086 12.4547 33.6522 13.6111C32.4957 14.7676 30.9272 15.4173 29.2917 15.4173Z" fill="#FF8A49"/>
</svg>
