<svg width="37" height="37" viewBox="0 0 37 37" fill="none" xmlns="http://www.w3.org/2000/svg">
<path d="M30.8333 33.9173H6.16667C5.75779 33.9173 5.36566 33.7549 5.07654 33.4658C4.78743 33.1767 4.625 32.7845 4.625 32.3757V4.62565C4.625 4.21678 4.78743 3.82465 5.07654 3.53553C5.36566 3.24641 5.75779 3.08398 6.16667 3.08398H30.8333C31.2422 3.08398 31.6343 3.24641 31.9235 3.53553C32.2126 3.82465 32.375 4.21678 32.375 4.62565V32.3757C32.375 32.7845 32.2126 33.1767 31.9235 33.4658C31.6343 33.7549 31.2422 33.9173 30.8333 33.9173ZM10.7917 6.16732H7.70833V30.834H29.2917V6.16732H21.5833V20.0423L16.1875 16.959L10.7917 20.0423V6.16732Z" fill="#FF8A49"/>
<path d="M30.8333 33.9173H6.16667C5.75779 33.9173 5.36566 33.7549 5.07654 33.4658C4.78743 33.1767 4.625 32.7845 4.625 32.3757V4.62565C4.625 4.21678 4.78743 3.82465 5.07654 3.53553C5.36566 3.24641 5.75779 3.08398 6.16667 3.08398H30.8333C31.2422 3.08398 31.6343 3.24641 31.9235 3.53553C32.2126 3.82465 32.375 4.21678 32.375 4.62565V32.3757C32.375 32.7845 32.2126 33.1767 31.9235 33.4658C31.6343 33.7549 31.2422 33.9173 30.8333 33.9173ZM10.7917 6.16732H7.70833V30.834H29.2917V6.16732H21.5833V6.04232L16.1875 5.95898L10.7917 6.04232V6.16732Z" fill="#7155FF"/>
</svg>
