<svg width="37" height="37" viewBox="0 0 37 37" fill="none" xmlns="http://www.w3.org/2000/svg">
<path d="M7.70833 7.09913V21.2593C7.70835 22.2745 7.95897 23.2739 8.43794 24.1689C8.91692 25.0639 9.60944 25.8269 10.454 26.39L18.5 31.755L26.546 26.39C27.3903 25.827 28.0827 25.0643 28.5617 24.1696C29.0407 23.2749 29.2914 22.2757 29.2917 21.2609V7.09913L18.5 4.70339L7.70833 7.09913ZM5.83212 4.35805L18.5 1.54297L31.1679 4.35805C31.5102 4.43415 31.8164 4.62471 32.0358 4.89826C32.2553 5.17181 32.3749 5.51201 32.375 5.86272V21.2593C32.3749 22.7821 31.9988 24.2813 31.2802 25.6238C30.5616 26.9664 29.5227 28.1107 28.2557 28.9553L18.5 35.4596L8.74433 28.9553C7.4775 28.1109 6.43871 26.9667 5.72012 25.6245C5.00153 24.2822 4.62536 22.7834 4.625 21.2609V5.86272C4.62506 5.51201 4.74469 5.17181 4.96415 4.89826C5.18361 4.62471 5.48978 4.43415 5.83212 4.35805Z" fill="#7155FF"/>
<path d="M18.5005 20.8125L13.9696 23.1944L14.8345 18.15L11.1699 14.5765L16.2358 13.8395L18.5005 9.25L20.7668 13.8395L25.8312 14.5765L22.1666 18.15L23.03 23.1944L18.5005 20.8125Z" fill="#FF8A49"/>
</svg>
