<svg width="30" height="30" viewBox="0 0 30 30" fill="none" xmlns="http://www.w3.org/2000/svg">
<path d="M15.0017 7.55078L17.0694 11.9549L21.6909 12.6615L18.3463 16.0879L19.1355 20.9292L15.0017 18.6433L10.8678 20.9275L11.6571 16.0879L8.3125 12.6599L12.934 11.9533L15.0017 7.55078Z" fill="#FF8A49"/>
<path d="M15 0C18.9782 0 22.7936 1.58035 25.6066 4.3934C28.4196 7.20644 30 11.0218 30 15C30 18.9782 28.4196 22.7936 25.6066 25.6066C22.7936 28.4196 18.9782 30 15 30C11.0218 30 7.20644 28.4196 4.3934 25.6066C1.58035 22.7936 0 18.9782 0 15C0 11.0218 1.58035 7.20644 4.3934 4.3934C7.20644 1.58035 11.0218 0 15 0ZM15 3.75C12.0163 3.75 9.15483 4.93527 7.04505 7.04505C4.93527 9.15483 3.75 12.0163 3.75 15C3.75 17.9837 4.93527 20.8452 7.04505 22.955C9.15483 25.0647 12.0163 26.25 15 26.25C17.9837 26.25 20.8452 25.0647 22.955 22.955C25.0647 20.8452 26.25 17.9837 26.25 15C26.25 12.0163 25.0647 9.15483 22.955 7.04505C20.8452 4.93527 17.9837 3.75 15 3.75Z" fill="#7155FF"/>
</svg>
